<svg width="17" height="20" viewBox="0 0 17 20" fill="none" xmlns="http://www.w3.org/2000/svg">
<path d="M16 8.5C16 14.3333 8.5 19.3333 8.5 19.3333C8.5 19.3333 1 14.3333 1 8.5C1 6.51088 1.79018 4.60322 3.1967 3.1967C4.60322 1.79018 6.51088 1 8.5 1C10.4891 1 12.3968 1.79018 13.8033 3.1967C15.2098 4.60322 16 6.51088 16 8.5Z" stroke="white" stroke-linecap="round" stroke-linejoin="round"/>
<path d="M8.5 11.0009C9.88071 11.0009 11 9.88157 11 8.50085C11 7.12014 9.88071 6.00085 8.5 6.00085C7.11929 6.00085 6 7.12014 6 8.50085C6 9.88157 7.11929 11.0009 8.5 11.0009Z" stroke="white" stroke-linecap="round" stroke-linejoin="round"/>
</svg>
