<svg width="23" height="39" viewBox="0 0 23 39" fill="none" xmlns="http://www.w3.org/2000/svg">
<path d="M0.821264 20.6992L19.2818 38.2885C19.5899 38.5822 19.9991 38.746 20.4246 38.746C20.8502 38.746 21.2594 38.5822 21.5675 38.2885L21.5873 38.2687C21.7372 38.1263 21.8565 37.955 21.938 37.765C22.0196 37.5751 22.0616 37.3706 22.0616 37.1639C22.0616 36.9573 22.0196 36.7527 21.938 36.5628C21.8565 36.3729 21.7372 36.2016 21.5873 36.0592L4.20333 19.4967L21.5873 2.94086C21.7372 2.79851 21.8565 2.62716 21.938 2.43725C22.0196 2.24733 22.0616 2.04281 22.0616 1.83614C22.0616 1.62946 22.0196 1.42494 21.938 1.23503C21.8565 1.04511 21.7372 0.873768 21.5873 0.731419L21.5675 0.711542C21.2594 0.417907 20.8502 0.2541 20.4246 0.2541C19.9991 0.2541 19.5899 0.417907 19.2818 0.711542L0.821264 18.3009C0.658911 18.4556 0.52966 18.6416 0.441346 18.8478C0.353032 19.0539 0.307494 19.2758 0.307494 19.5C0.307494 19.7243 0.353033 19.9462 0.441346 20.1523C0.52966 20.3584 0.658911 20.5445 0.821264 20.6992Z" fill="#F8F8F8"/>
</svg>
