<svg width="23" height="39" viewBox="0 0 23 39" fill="none" xmlns="http://www.w3.org/2000/svg">
<path d="M22.1789 18.3008L3.71829 0.71147C3.41026 0.417834 3.00103 0.254029 2.57547 0.254029C2.14991 0.254029 1.74069 0.417835 1.43266 0.71147L1.41279 0.731345C1.26294 0.873694 1.14363 1.04504 1.0621 1.23495C0.980563 1.42487 0.938517 1.62939 0.938517 1.83606C0.938517 2.04274 0.980563 2.24726 1.0621 2.43717C1.14363 2.62709 1.26294 2.79843 1.41279 2.94078L18.7968 19.5033L1.41279 36.0591C1.26295 36.2015 1.14363 36.3728 1.0621 36.5628C0.980565 36.7527 0.938519 36.9572 0.938519 37.1639C0.938519 37.3705 0.980565 37.5751 1.0621 37.765C1.14363 37.9549 1.26295 38.1262 1.41279 38.2686L1.43266 38.2885C1.74069 38.5821 2.14992 38.7459 2.57547 38.7459C3.00103 38.7459 3.41026 38.5821 3.71829 38.2885L22.1789 20.6991C22.3412 20.5444 22.4705 20.3584 22.5588 20.1522C22.6471 19.9461 22.6926 19.7242 22.6926 19.5C22.6926 19.2757 22.6471 19.0538 22.5588 18.8477C22.4705 18.6416 22.3412 18.4555 22.1789 18.3008Z" fill="#F8F8F8"/>
</svg>
