<svg width="1172" height="52" viewBox="0 0 1172 52" fill="none" xmlns="http://www.w3.org/2000/svg">
<path d="M489 25.5731L1 25.5731" stroke="url(#paint0_linear_97_420)" stroke-linecap="round"/>
<path fill-rule="evenodd" clip-rule="evenodd" d="M548.709 14.4896C548.83 11.1716 549.939 9.57804 553.036 8.34758C553.379 10.4454 552.794 12.049 551.281 13.1886C549.728 14.2476 549.526 14.4896 548.709 14.4896ZM542.96 4.86829C543.697 4.94884 544.735 5.59431 546.077 6.86517C547.075 8.02485 547.448 9.72937 547.227 11.9481C544.802 9.27855 542.569 9.60075 542.96 4.86829ZM541.478 2.38731C541.478 8.40622 540.568 10.0732 546.398 12.8122C546.678 12.9435 546.908 13.0721 547.162 13.2234C547.226 13.2615 547.28 13.3125 547.279 13.3983C547.267 14.564 547.257 15.7522 547.257 16.9404C550.827 15.2864 552.985 13.8341 553.731 12.5835C554.811 10.5262 555.063 8.30744 554.488 5.92708C553.384 6.34199 552.238 6.64412 551.195 7.2093C551.023 7.30253 550.855 7.40579 550.689 7.51592C550.211 7.83311 549.766 8.19546 549.305 8.53562C549.112 8.67798 548.914 8.81874 548.709 8.95291C548.401 5.40152 544.212 3.87183 541.478 2.38731Z" fill="#2F9734"/>
<path fill-rule="evenodd" clip-rule="evenodd" d="M565.373 26.6547C569.113 18.1316 558.967 10.9694 552.324 16.636C551.891 17.0052 551.571 17.3502 551.064 17.6243C548.072 19.2451 544.939 18.3482 542.258 16.4432C542.006 16.2644 541.767 16.0888 541.501 15.9309C539.599 14.8002 537.757 14.553 535.977 14.5961C534.129 14.641 532.346 15.0216 530.629 16.3125C525.634 20.0789 523.924 26.1498 525.656 34.4469C525.684 34.58 525.716 34.7065 525.756 34.8364C528.556 43.9345 532.631 49.1251 537.982 50.329C539.544 50.706 541.672 50.4367 544.284 49.5211C545.738 49.09 546.416 48.8383 549.19 49.754C553.822 51.6124 558.447 50.8558 561.598 46.8156C564.884 41.5639 565.726 35.8638 562.952 32.4431C560.905 30.5311 558.237 30.0107 553.389 30.334C553.954 26.7517 554.601 25.7357 555.247 25.4932C553.55 25.5202 551.425 25.2297 549.728 25.095C549.674 27.1421 549.371 28.7176 549.317 30.7647C546.974 31.0341 543.912 31.3046 541.892 30.7119C541.699 31.579 543.069 32.685 545.621 33.2938C546.637 33.5359 548.004 33.3059 549.285 33.5515C549.42 37.403 550.3 40.3873 551.377 41.5723C551.991 36.9366 552.452 33.7467 552.682 33.4058C552.683 33.4039 553.852 33.507 554.059 33.5063C557.446 33.5 558.604 33.7523 559.947 35.0643C561.255 36.3413 560.602 38.9355 560.057 40.5912C558.398 45.6269 556.391 47.6351 552.768 46.693C549.159 45.535 546.412 45.2117 544.527 45.6427C540.162 46.8235 537.267 46.7321 535.839 45.3683C535.678 45.2148 535.526 45.0488 535.369 44.8913C530.393 39.9074 528.067 33.9429 528.331 26.998C528.374 25.8812 528.496 25.0337 528.877 23.986C530.731 18.8896 533.671 16.6273 537.647 17.0544C538.577 17.1542 539.277 17.4088 540.122 17.7896C541.561 18.4396 542.932 19.1521 544.271 19.9273C544.422 20.0152 544.563 20.0752 544.73 20.133C546.419 20.7183 548.107 20.7317 549.796 20.2146C550.496 20.0007 550.915 19.7324 551.501 19.3151C554.775 16.986 557.449 16.0495 559.574 16.4068C560.028 16.4831 560.512 16.6099 560.941 16.7726C563.045 17.5683 565.264 19.852 565.511 22.1122C565.538 22.3636 565.534 22.6116 565.519 22.863C565.515 22.9362 565.51 23.0094 565.506 23.0828C565.435 24.2718 565.373 25.4632 565.373 26.6547Z" fill="#EE2922"/>
<path d="M594.985 17.666C594.762 19.8285 593.808 20.8791 592.067 20.8791C590.267 20.8791 589.276 19.6845 589.276 17.5152V9.94074C589.276 7.77088 590.232 6.57607 591.967 6.57607C593.744 6.57607 594.682 7.62271 594.835 9.77462L594.865 10.2141H597.3L597.273 9.71599C597.088 6.28477 595.105 4.23586 591.967 4.23586C588.85 4.23586 586.835 6.47519 586.835 9.94074V17.5152C586.835 20.9808 588.889 23.2201 592.067 23.2201C595.152 23.2201 597.154 21.1754 597.421 17.7513L597.461 17.2416H595.029L594.985 17.666Z" fill="white"/>
<path d="M601.757 4.53486H599.267V22.9209H601.757V4.53486Z" fill="white"/>
<path d="M607.138 13.2296C607.138 12.3977 607.128 11.6118 607.106 10.8498C607.143 10.942 607.18 11.035 607.218 11.1282C607.464 11.7449 607.72 12.3858 607.969 13.0279L610.23 18.8096H612.42L614.68 13.0268C614.928 12.3874 615.184 11.7475 615.43 11.1321C615.468 11.0376 615.505 10.943 615.542 10.8498C615.521 11.6112 615.511 12.3967 615.511 13.2296V22.9209H618.001V4.53486H615.568L612.331 12.3565C612.019 13.1364 611.632 14.2153 611.325 15.1006C611.017 14.2177 610.631 13.1396 610.316 12.351L607.081 4.53486H604.648V22.9209H607.138V13.2296Z" fill="white"/>
<path d="M630.233 20.5551H623.381V14.7739H629.536V12.408H623.381V6.90016H629.959V4.53486H620.891V22.9209H630.233V20.5551Z" fill="white"/>
<path d="M637.483 3.83557C639.457 3.83557 640.686 2.58584 640.77 0.491766L640.79 7.1407e-06H638.561L638.531 0.440793C638.462 1.44755 638.095 1.64458 637.483 1.64458C636.871 1.64458 636.503 1.44755 636.435 0.440793L636.404 7.1407e-06H634.175L634.195 0.491766C634.28 2.58584 635.509 3.83557 637.483 3.83557Z" fill="white"/>
<path d="M635.013 16.3651C634.905 16.5925 634.794 16.8341 634.683 17.0795C634.689 16.6828 634.692 16.3186 634.692 16.045V4.53486H632.201V22.9209H634.676L640.211 10.4465L640.254 10.343L640.249 10.9621V22.9209H642.739V4.53486H640.214L635.013 16.3651Z" fill="white"/>
<path d="M653.378 12.3829H648.12V4.53486H645.63V22.9209H648.12V14.7739H653.378V22.9209H655.869V4.53486H653.378V12.3829Z" fill="white"/>
<path d="M661.57 16.3651C661.462 16.5925 661.351 16.8341 661.241 17.0795C661.246 16.6828 661.249 16.3186 661.249 16.045V4.53486H658.759V22.9209H661.233L666.768 10.4465L666.812 10.343L666.806 10.9621V22.9209H669.296V4.53486H666.771L661.57 16.3651Z" fill="white"/>
<path d="M680.199 4.53486L674.998 16.3651C674.89 16.5925 674.779 16.8341 674.668 17.0795C674.674 16.6823 674.677 16.3186 674.677 16.045V4.53486H672.186V22.9209H674.661L680.196 10.4465L680.239 10.343L680.234 10.9621V22.9209H682.724V4.53486H680.199Z" fill="white"/>
<path d="M677.468 3.83557C679.441 3.83557 680.671 2.58584 680.755 0.491766L680.775 7.1407e-06H678.546L678.516 0.440793C678.447 1.44755 678.08 1.64458 677.468 1.64458C676.856 1.64458 676.488 1.44755 676.419 0.440793L676.389 7.1407e-06H674.16L674.18 0.491766C674.265 2.58584 675.494 3.83557 677.468 3.83557Z" fill="white"/>
<path d="M588.006 32.2082C587.735 39.9322 587.431 44.4082 587.237 46.0265C587.098 47.3008 586.636 47.9474 585.863 47.9474H585.39V50.3625H585.863C588 50.3625 589.352 48.9412 589.67 46.3675C589.968 44.2301 590.188 39.3957 590.403 34.1427H593.961V50.1384H596.451V31.7524H588.023L588.006 32.2082Z" fill="white"/>
<path d="M599.341 50.1388H601.832V31.7528H599.341V50.1388Z" fill="white"/>
<path d="M619.128 43.7121L620.775 37.0765C620.832 36.8558 620.887 36.6279 620.94 36.4009C620.993 36.6267 621.048 36.8536 621.105 37.0733L622.753 43.7121H619.128ZM619.729 31.7528L615.247 48.8024L609.554 39.843L615.469 31.7528H612.376L607.772 38.2344L607.212 39.0391V31.7528H604.723V50.1388H607.212V43.0197L607.958 42.0063L613.133 50.1388H614.896H616.096H617.522L618.544 46.0526H623.337L624.359 50.1388H626.985L622.152 31.7528H619.729Z" fill="white"/>
<path d="M632.749 41.1205H630.581V34.168H632.749C634.8 34.168 635.715 35.2209 635.715 37.5817C635.715 40.0622 634.828 41.1205 632.749 41.1205ZM632.749 31.7528H628.091V50.1388H630.581V43.5362H632.749C636.268 43.5362 638.205 41.4218 638.205 37.5817C638.205 33.8777 636.216 31.7528 632.749 31.7528Z" fill="white"/>
<path d="M574.077 1.95696V51.1464H576.73V1.95696H574.077Z" fill="white"/>
<path d="M718.724 25.5731L1170.72 25.5732" stroke="url(#paint1_linear_97_420)" stroke-linecap="round"/>
<defs>
<linearGradient id="paint0_linear_97_420" x1="9.27116" y1="26.0705" x2="489" y2="25.6504" gradientUnits="userSpaceOnUse">
<stop stop-color="white" stop-opacity="0"/>
<stop offset="1" stop-color="white" stop-opacity="0.87"/>
</linearGradient>
<linearGradient id="paint1_linear_97_420" x1="1163.06" y1="25.0758" x2="718.724" y2="25.0753" gradientUnits="userSpaceOnUse">
<stop stop-color="white" stop-opacity="0"/>
<stop offset="1" stop-color="white" stop-opacity="0.87"/>
</linearGradient>
</defs>
</svg>
