<svg width="158" height="52" viewBox="0 0 158 52" fill="none" xmlns="http://www.w3.org/2000/svg">
<path fill-rule="evenodd" clip-rule="evenodd" d="M23.7091 14.4896C23.8301 11.1716 24.9394 9.57804 28.0358 8.34758C28.3786 10.4454 27.7936 12.049 26.2809 13.1886C24.7277 14.2476 24.526 14.4896 23.7091 14.4896ZM17.9605 4.86829C18.6967 4.94884 19.7355 5.59431 21.0768 6.86517C22.0752 8.02485 22.4484 9.72937 22.2266 11.9481C19.802 9.27855 17.5692 9.60075 17.9605 4.86829ZM16.4779 2.38731C16.4779 8.40621 15.5679 10.0732 21.3981 12.8122C21.6778 12.9435 21.9078 13.0721 22.1621 13.2234C22.2263 13.2615 22.2802 13.3125 22.2793 13.3983C22.2666 14.564 22.2568 15.7522 22.2568 16.9404C25.827 15.2864 27.9854 13.8341 28.7315 12.5835C29.8106 10.5262 30.0628 8.30744 29.4878 5.92708C28.3839 6.34199 27.2385 6.64412 26.195 7.2093C26.0229 7.30253 25.8548 7.40579 25.6889 7.51592C25.2115 7.83311 24.7659 8.19546 24.305 8.53562C24.112 8.67797 23.9144 8.81874 23.7091 8.95291C23.4011 5.40152 19.2116 3.87183 16.4779 2.38731Z" fill="#2F9734"/>
<path fill-rule="evenodd" clip-rule="evenodd" d="M40.3729 26.6547C44.1133 18.1316 33.9665 10.9694 27.3241 16.636C26.8912 17.0052 26.5709 17.3502 26.0645 17.6243C23.0724 19.2451 19.9393 18.3482 17.2578 16.4432C17.0065 16.2644 16.7667 16.0888 16.5011 15.9309C14.5988 14.8002 12.7574 14.553 10.9771 14.5961C9.12866 14.641 7.34589 15.0216 5.62911 16.3125C0.633951 20.0789 -1.07601 26.1498 0.656441 34.4469C0.684296 34.58 0.716071 34.7065 0.756098 34.8364C3.55559 43.9345 7.63083 49.1251 12.9818 50.329C14.5439 50.706 16.6716 50.4367 19.2842 49.5211C20.7385 49.09 21.4159 48.8383 24.19 49.754C28.8223 51.6124 33.4468 50.8558 36.598 46.8156C39.884 41.5639 40.7257 35.8638 37.9516 32.4431C35.9048 30.5311 33.2365 30.0107 28.3887 30.334C28.9544 26.7517 29.6006 25.7357 30.2469 25.4932C28.5503 25.5202 26.4248 25.2297 24.7281 25.095C24.6742 27.1421 24.3712 28.7176 24.3174 30.7647C21.9742 31.0341 18.9117 31.3046 16.8918 30.7119C16.6991 31.579 18.0685 32.685 20.6207 33.2938C21.6368 33.5359 23.0043 33.3059 24.285 33.5515C24.4197 37.403 25.2999 40.3873 26.3773 41.5723C26.9908 36.9366 27.4516 33.7467 27.6817 33.4058C27.683 33.4039 28.8524 33.507 29.059 33.5063C32.4461 33.5 33.6036 33.7523 34.9474 35.0643C36.2547 36.3413 35.6021 38.9355 35.057 40.5912C33.3984 45.6269 31.391 47.6351 27.768 46.693C24.159 45.535 21.4118 45.2117 19.5266 45.6427C15.1625 46.8235 12.2665 46.7321 10.8386 45.3683C10.678 45.2148 10.5262 45.0488 10.3689 44.8913C5.39266 39.9074 3.067 33.9429 3.33131 26.998C3.37381 25.8812 3.49564 25.0337 3.87706 23.986C5.73145 18.8896 8.67092 16.6273 12.6468 17.0544C13.5767 17.1542 14.2773 17.4088 15.1215 17.7896C16.5613 18.4396 17.9324 19.1521 19.2705 19.9273C19.4225 20.0152 19.5628 20.0752 19.7296 20.133C21.4185 20.7183 23.1074 20.7317 24.7964 20.2146C25.4957 20.0007 25.9149 19.7324 26.5011 19.3151C29.7747 16.986 32.449 16.0495 34.5737 16.4068C35.0277 16.4831 35.5118 16.6099 35.9415 16.7726C38.0445 17.5683 40.2643 19.852 40.5107 22.1122C40.5382 22.3636 40.5342 22.6116 40.5192 22.863C40.5147 22.9362 40.5105 23.0094 40.506 23.0828C40.4347 24.2718 40.3729 25.4632 40.3729 26.6547Z" fill="#EE2922"/>
<path d="M69.9854 17.666C69.7625 19.8285 68.8078 20.8791 67.0668 20.8791C65.2669 20.8791 64.2758 19.6845 64.2758 17.5152V9.94074C64.2758 7.77087 65.2315 6.57607 66.9672 6.57607C68.7444 6.57607 69.6822 7.62271 69.8346 9.77462L69.8655 10.2141H72.2997L72.2728 9.71599C72.0882 6.28477 70.1045 4.23586 66.9672 4.23586C63.8498 4.23586 61.8354 6.47519 61.8354 9.94074V17.5152C61.8354 20.9808 63.8888 23.2201 67.0668 23.2201C70.152 23.2201 72.1539 21.1754 72.4215 17.7513L72.4614 17.2416H70.0292L69.9854 17.666Z" fill="white"/>
<path d="M76.7572 4.53485H74.2673V22.9209H76.7572V4.53485Z" fill="white"/>
<path d="M82.1381 13.2296C82.1381 12.3977 82.1278 11.6118 82.1064 10.8498C82.1431 10.942 82.1803 11.035 82.2176 11.1282C82.464 11.7449 82.7202 12.3858 82.9692 13.0279L85.2297 18.8096H87.4196L89.6803 13.0268C89.9283 12.3874 90.184 11.7475 90.4299 11.1321C90.4676 11.0376 90.5054 10.943 90.5424 10.8498C90.5212 11.6112 90.5109 12.3967 90.5109 13.2296V22.9209H93.0012V4.53485H90.5682L87.3309 12.3565C87.0187 13.1364 86.6321 14.2153 86.3246 15.1006C86.0175 14.2177 85.6314 13.1396 85.316 12.351L82.0808 4.53485H79.6479V22.9209H82.1381V13.2296Z" fill="white"/>
<path d="M105.233 20.5551H98.3815V14.7739H104.536V12.408H98.3815V6.90016H104.959V4.53485H95.8912V22.9209H105.233V20.5551Z" fill="white"/>
<path d="M112.483 3.83557C114.457 3.83557 115.686 2.58584 115.77 0.491766L115.79 7.15256e-06H113.561L113.531 0.440793C113.462 1.44755 113.095 1.64458 112.483 1.64458C111.871 1.64458 111.503 1.44755 111.435 0.440793L111.404 7.15256e-06H109.175L109.195 0.491766C109.28 2.58584 110.509 3.83557 112.483 3.83557Z" fill="white"/>
<path d="M110.013 16.3651C109.905 16.5925 109.794 16.8341 109.683 17.0795C109.689 16.6828 109.692 16.3186 109.692 16.045V4.53485H107.201V22.9209H109.676L115.211 10.4465L115.254 10.343L115.249 10.9621V22.9209H117.739V4.53485H115.214L110.013 16.3651Z" fill="white"/>
<path d="M128.378 12.3829H123.12V4.53485H120.629V22.9209H123.12V14.7739H128.378V22.9209H130.868V4.53485H128.378V12.3829Z" fill="white"/>
<path d="M136.57 16.3651C136.462 16.5925 136.351 16.8341 136.241 17.0795C136.246 16.6828 136.249 16.3186 136.249 16.045V4.53485H133.759V22.9209H136.233L141.768 10.4465L141.812 10.343L141.806 10.9621V22.9209H144.296V4.53485H141.771L136.57 16.3651Z" fill="white"/>
<path d="M155.199 4.53485L149.998 16.3651C149.89 16.5925 149.779 16.8341 149.668 17.0795C149.674 16.6823 149.677 16.3186 149.677 16.045V4.53485H147.186V22.9209H149.661L155.196 10.4465L155.239 10.343L155.234 10.9621V22.9209H157.724V4.53485H155.199Z" fill="white"/>
<path d="M152.468 3.83557C154.441 3.83557 155.671 2.58584 155.755 0.491766L155.775 7.15256e-06H153.546L153.516 0.440793C153.447 1.44755 153.08 1.64458 152.468 1.64458C151.856 1.64458 151.488 1.44755 151.419 0.440793L151.389 7.15256e-06H149.16L149.18 0.491766C149.265 2.58584 150.494 3.83557 152.468 3.83557Z" fill="white"/>
<path d="M63.0065 32.2082C62.7348 39.9321 62.431 44.4082 62.2369 46.0265C62.0977 47.3008 61.6356 47.9474 60.8631 47.9474H60.3903V50.3625H60.8631C62.9997 50.3625 64.3519 48.9412 64.6698 46.3675C64.968 44.2301 65.188 39.3957 65.4027 34.1427H68.9612V50.1384H71.4515V31.7524H63.0229L63.0065 32.2082Z" fill="white"/>
<path d="M74.3415 50.1388H76.8317V31.7528H74.3415V50.1388Z" fill="white"/>
<path d="M94.1278 43.7121L95.7753 37.0765C95.8318 36.8558 95.8875 36.6279 95.9403 36.4009C95.9931 36.6267 96.0483 36.8536 96.1046 37.0733L97.7529 43.7121H94.1278ZM94.7286 31.7528L90.2471 48.8024L84.5541 39.843L90.4694 31.7528H87.376L82.7719 38.2344L82.2125 39.0391V31.7528H79.7226V50.1388H82.2125V43.0197L82.9576 42.0063L88.1329 50.1388H89.8958H91.0964H92.5223L93.5438 46.0526H98.3368L99.3586 50.1388H101.985L97.152 31.7528H94.7286Z" fill="white"/>
<path d="M107.749 41.1205H105.581V34.168H107.749C109.8 34.168 110.715 35.2209 110.715 37.5817C110.715 40.0622 109.828 41.1205 107.749 41.1205ZM107.749 31.7528H103.091V50.1388H105.581V43.5362H107.749C111.268 43.5362 113.205 41.4218 113.205 37.5817C113.205 33.8777 111.216 31.7528 107.749 31.7528Z" fill="white"/>
<path d="M49.0774 1.95695V51.1464H51.7303V1.95695H49.0774Z" fill="white"/>
</svg>
