<svg width="1197" height="42" viewBox="0 0 1197 42" fill="none" xmlns="http://www.w3.org/2000/svg">
<path d="M489.234 20.775L1.23364 20.775" stroke="url(#paint0_linear_97_421)" stroke-linecap="round"/>
<path d="M571.858 3.86634C571.807 6.01241 571.773 12.2632 571.756 17.7987C571.739 23.3171 571.671 30.7432 571.603 34.2689C571.517 40.0087 571.517 40.707 571.756 40.707C572.045 40.707 572.131 36.449 572.318 12.127C572.386 1.66919 572.369 3.05176e-05 572.165 3.05176e-05C571.96 3.05176e-05 571.909 0.647255 571.858 3.86634Z" fill="white"/>
<path d="M539.872 2.67413C539.872 3.96858 539.957 5.29709 540.042 5.65477C540.297 6.55748 540.996 7.13657 543.193 8.27773L545.152 9.28263V10.8496C545.152 11.7182 545.203 12.4336 545.254 12.4336C545.322 12.4336 546.071 12.0759 546.923 11.6501C550.295 9.92986 551.249 8.94199 551.641 6.82999C551.828 5.7229 551.811 3.52574 551.59 3.32136C551.539 3.25323 550.857 3.55981 550.074 3.96858C549.29 4.39439 548.132 4.99051 547.519 5.33116L546.395 5.92729L546.122 4.95645C545.765 3.662 545.049 3.01478 542.341 1.55001C541.132 0.885749 540.076 0.340718 540.008 0.340718C539.923 0.340718 539.872 1.39672 539.872 2.67413ZM542.137 2.6571C544.215 3.73013 544.981 4.87129 545.118 7.17064C545.169 7.92006 545.135 8.51618 545.083 8.51618C545.015 8.51618 544.76 8.27773 544.521 8.00522C544.283 7.71567 543.772 7.32393 543.38 7.11954C542.307 6.59154 541.592 5.82509 541.319 4.87129C541.081 4.07077 540.962 2.21426 541.149 2.21426C541.2 2.21426 541.643 2.41865 542.137 2.6571ZM550.432 6.09761C550.432 7.37502 549.818 8.65244 548.933 9.24857C548.268 9.67437 546.599 10.56 546.429 10.56C546.378 10.56 546.344 10.0661 546.344 9.45296C546.344 8.24367 546.616 7.40909 547.144 6.94922C547.519 6.60857 550.091 5.10974 550.295 5.10974C550.38 5.10974 550.432 5.55258 550.432 6.09761Z" fill="#2F9734"/>
<path d="M582.231 0.613354C582.163 0.681482 582.111 4.05386 582.111 8.12456V15.4995H583.048H583.985V12.8936C583.985 10.492 584.019 10.2536 584.377 9.65746L584.786 8.9932L586.301 12.2464L587.817 15.4995H588.788C589.35 15.4995 589.776 15.4314 589.776 15.3292C589.776 15.227 589.214 14.0177 588.533 12.6381C587.834 11.2585 586.949 9.43604 586.557 8.58443L585.824 7.0345L587.443 4.07089C588.345 2.4358 589.129 0.97103 589.197 0.800708C589.282 0.545225 589.18 0.511161 588.277 0.511161H587.255L586.438 2.07812C585.978 2.94677 585.262 4.34341 584.837 5.17799L584.07 6.69386L583.985 3.64509L583.9 0.596322L583.133 0.545225C582.708 0.511161 582.299 0.545225 582.231 0.613354Z" fill="white"/>
<path d="M592.075 0.715511C592.041 0.834737 591.973 2.53796 591.905 4.5137C591.786 8.55033 591.564 11.6843 591.292 12.6551C591.173 13.0979 590.951 13.4045 590.611 13.5919C590.168 13.8474 590.117 13.9666 590.117 14.7671C590.117 15.6187 590.134 15.6698 590.559 15.6698C591.258 15.6698 592.126 15.1759 592.501 14.5627C593.063 13.66 593.336 11.9397 593.523 8.0053C593.625 5.9955 593.744 3.9346 593.796 3.44067L593.881 2.55499H595.158H596.418V9.02723V15.4995H597.355H598.292V8.0053V0.511125H595.226C592.91 0.511125 592.126 0.562222 592.075 0.715511Z" fill="white"/>
<path d="M600.847 8.00534V15.4995H601.699H602.55V8.00534V0.511161H601.699H600.847V8.00534Z" fill="white"/>
<path d="M605.105 8.00534V15.4995H605.957H606.808V12.1782V8.85695H608.597H610.385V12.1782V15.4995H611.237H612.088V8.00534V0.511161H611.237H610.385V3.74728V6.9834H608.597H606.808V3.74728V0.511161H605.957H605.105V8.00534Z" fill="white"/>
<path d="M614.813 8.00534V15.4995H615.665H616.517V8.00534V0.511161H615.665H614.813V8.00534Z" fill="white"/>
<path d="M619.02 0.613306C618.952 0.681436 618.901 4.05381 618.901 8.12452V15.4995H619.838H620.775V12.8935C620.775 10.492 620.809 10.2535 621.166 9.65741L621.558 8.99316L623.091 12.2463L624.607 15.4995H625.595C626.804 15.4995 626.821 15.6868 625.203 12.4337C624.59 11.1733 623.738 9.436 623.347 8.58439L622.614 7.03445L624.232 4.07085C625.135 2.43575 625.918 0.970983 625.987 0.800661C626.089 0.528145 626.004 0.494081 625.033 0.545177L623.977 0.596274L622.427 3.62801L620.86 6.67678L620.775 3.62801L620.69 0.596274L619.923 0.545177C619.497 0.511113 619.088 0.545177 619.02 0.613306Z" fill="white"/>
<path d="M629.972 0.647418C629.972 0.715548 629.325 3.88354 628.524 7.68172C627.724 11.4629 627.025 14.7671 626.974 15.0226C626.872 15.4995 626.889 15.4995 627.809 15.4995H628.763L628.933 14.5968C629.035 14.1199 629.154 13.4216 629.223 13.0639L629.325 12.4337H630.994H632.663L632.953 13.9666L633.242 15.4995H634.179C635.099 15.4995 635.116 15.4995 635.013 15.0226C634.962 14.7671 634.264 11.4629 633.464 7.68172C632.663 3.88354 632.016 0.715548 632.016 0.647418C632.016 0.579289 631.556 0.511161 630.994 0.511161C630.432 0.511161 629.972 0.579289 629.972 0.647418ZM631.232 4.80328C631.3 5.39941 631.539 6.77902 631.777 7.90314C632.356 10.7475 632.408 10.5602 630.994 10.5602C630.159 10.5602 629.802 10.492 629.802 10.3387C629.802 10.2366 630.04 8.92508 630.313 7.42624C630.602 5.94444 630.824 4.51373 630.824 4.24122C630.824 3.33851 631.113 3.73025 631.232 4.80328Z" fill="white"/>
<path d="M553.412 10.8497C552.714 11.0029 551.999 11.3266 550.517 12.1952C547.928 13.694 545.782 14.222 543.942 13.7962C543.431 13.694 541.984 13.1149 540.723 12.5188C539.463 11.9397 537.862 11.3095 537.18 11.1562C534.626 10.5431 531.27 11.2244 529.226 12.7743C527.336 14.2391 525.888 16.9302 525.411 19.9449C525.139 21.597 525.19 25.1908 525.496 26.7067C526.297 30.7092 528.511 35.0524 531.049 37.6584C532.36 39.0039 533.348 39.7022 535.051 40.4857C536.772 41.2862 538.168 41.3714 541.064 40.9115C544.964 40.2813 544.811 40.2813 547.638 40.9456C550.483 41.6269 551.896 41.712 553.634 41.3033C555.269 40.9115 556.427 40.2984 557.5 39.2083C558.607 38.1012 559.288 36.7727 560.242 33.9794C560.804 32.3443 560.889 31.9015 560.872 30.573C560.872 28.6994 560.446 27.4731 559.442 26.3319C558.028 24.7139 556.325 24.1518 552.952 24.1518C551.743 24.1518 550.772 24.0837 550.772 24.0156C550.772 23.9304 550.925 23.181 551.13 22.3294C551.453 20.9327 551.539 20.7454 551.999 20.5069C552.271 20.3707 552.475 20.2174 552.441 20.1833C552.305 20.0471 548.064 19.6213 547.74 19.7064C547.383 19.7916 547.366 19.8767 547.366 22.159C547.366 24.271 547.332 24.5436 547.076 24.6628C546.65 24.8161 542.001 24.8161 541.03 24.6458C539.872 24.4414 539.94 24.8331 541.234 25.6847C542.375 26.4512 543.312 26.7067 545.628 26.8599L547.195 26.9621V27.7456C547.212 29.9428 547.945 33.0767 548.575 33.6558C548.933 33.9794 548.95 33.9624 549.239 31.9355C549.341 31.2713 549.58 29.8746 549.784 28.8186L550.125 26.911H552.033C554.962 26.911 556.478 27.439 557.091 28.6483C557.67 29.7725 557.483 31.4416 556.563 33.7921C555.439 36.6364 554.536 37.6073 552.68 37.999C551.505 38.2375 550.397 38.1353 548.047 37.5562C545.748 37.0111 544.096 37.0111 540.911 37.5562C539.565 37.7946 538.202 37.982 537.913 37.982C537.606 37.982 536.738 37.6754 535.971 37.2837C531.39 34.9843 527.574 27.3539 528.034 21.3756C528.426 16.4362 530.487 13.7622 534.421 13.0809C535.886 12.8254 536.84 12.9957 538.986 13.8814C542.801 15.4824 543.074 15.5505 544.896 15.5676C547.229 15.5676 548.745 15.0736 551.249 13.4726C552.901 12.4166 553.565 12.1271 554.724 11.9908C557.244 11.7013 559.953 13.1149 560.992 15.244C561.4 16.0785 561.826 18.1905 561.843 19.502C561.877 20.9327 562.099 21.1541 562.32 20.013C562.729 18.0373 562.422 15.8912 561.554 14.2561C560.719 12.7232 558.794 11.3436 556.887 10.9178C556.137 10.7475 554.059 10.6964 553.412 10.8497Z" fill="#E90307"/>
<path d="M620.826 22.7722C620.979 23.6579 621.439 24.2199 622.256 24.5095C623.295 24.8842 624.13 24.5265 624.658 23.5046C625.203 22.4315 625.152 22.142 624.488 22.142C624.045 22.142 623.857 22.2442 623.636 22.653C623.432 22.9936 623.21 23.1639 622.938 23.1639C622.512 23.1639 621.967 22.7041 621.967 22.3464C621.967 22.2272 621.711 22.142 621.354 22.142H620.724L620.826 22.7722Z" fill="white"/>
<path d="M650.24 22.4827C650.24 23.0448 650.683 23.9475 651.109 24.2541C652.199 25.0035 653.63 24.6288 654.175 23.4365C654.652 22.3976 654.601 22.1421 653.953 22.1421C653.511 22.1421 653.323 22.2443 653.102 22.653C652.897 22.9937 652.676 23.164 652.403 23.164C651.978 23.164 651.433 22.7041 651.433 22.3465C651.433 22.2272 651.177 22.1421 650.836 22.1421C650.343 22.1421 650.24 22.2102 650.24 22.4827Z" fill="white"/>
<path d="M587.136 26.1276C586.455 26.4342 585.961 26.9962 585.484 28.0182C585.109 28.8357 585.092 29.0231 585.092 33.5536C585.092 38.0842 585.109 38.2716 585.484 39.0891C586.216 40.6901 587.034 41.2181 588.703 41.2181C590.849 41.2011 591.99 40.0599 592.399 37.5051L592.501 36.7898H591.581H590.679L590.559 37.4881C590.389 38.51 589.674 39.1743 588.72 39.1743C587.885 39.1743 587.391 38.7996 587.068 37.9309C586.949 37.6414 586.88 35.9041 586.88 33.5536C586.88 31.2032 586.949 29.4659 587.068 29.1764C587.391 28.3248 587.885 27.933 588.669 27.933C589.759 27.933 590.219 28.4099 590.525 29.8406C590.628 30.2835 590.696 30.3175 591.479 30.3175C592.297 30.3175 592.331 30.3005 592.331 29.8406C592.331 28.3758 591.292 26.5875 590.168 26.1276C589.469 25.821 587.8 25.838 587.136 26.1276Z" fill="white"/>
<path d="M594.375 33.5537V41.0479H595.226H596.078V33.5537V26.0595H595.226H594.375V33.5537Z" fill="white"/>
<path d="M598.582 26.1617C598.513 26.2298 598.462 29.6022 598.462 33.6729V41.0479H599.433H600.387L600.302 35.7168L600.2 30.4027L600.864 32.5317C601.239 33.707 601.767 35.308 602.022 36.1085L602.499 37.5562L603.419 37.6073L604.356 37.6584L605.446 34.1328L606.553 30.5901L606.604 35.819L606.638 41.0479H607.489H608.341V33.5537V26.0595H607.421H606.519L605.395 29.2445C604.781 31.0159 604.1 33.0427 603.896 33.7581C603.674 34.4904 603.487 35.0525 603.453 35.0184C603.419 35.0014 602.72 32.9916 601.903 30.556L600.404 26.1447L599.552 26.0936C599.093 26.0595 598.65 26.0936 598.582 26.1617Z" fill="white"/>
<path d="M610.896 33.5537V41.0479H613.962H617.027V40.0259V39.004H614.813H612.599V36.7046V34.4053H614.558H616.517V33.4685V32.5317H614.558H612.599V30.3176V28.1034H614.728H616.857V27.0814V26.0595H613.877H610.896V33.5537Z" fill="white"/>
<path d="M619.191 26.1616C619.123 26.2298 619.071 29.6192 619.071 33.6728V41.0648L620.042 41.0137L621.013 40.9626L622.018 38.2375C622.58 36.7386 623.432 34.3541 623.943 32.9575L624.845 30.4026V35.7167L624.862 41.0478H625.714H626.566V33.5536V26.0594H625.646H624.726L623.091 30.4367C622.205 32.8553 621.32 35.2568 621.149 35.7678L620.826 36.7046L620.843 31.4246L620.86 26.1446L620.093 26.0935C619.668 26.0594 619.259 26.0935 619.191 26.1616Z" fill="white"/>
<path d="M629.12 33.5537V41.0479H629.972H630.824V37.7266V34.4053H632.612H634.4V37.7266V41.0479H635.252H636.104V33.5537V26.0595H635.252H634.4V29.2956V32.5317H632.612H630.824V29.2956V26.0595H629.972H629.12V33.5537Z" fill="white"/>
<path d="M638.778 26.1616C638.71 26.2298 638.658 29.6192 638.658 33.6728V41.0648L639.612 41.0137L640.566 40.9626L641.843 37.5562C642.559 35.6826 643.427 33.2981 643.785 32.2762L644.432 30.4026L644.449 35.7167V41.0478H645.301H646.153V33.5536V26.0594H645.233C644.518 26.0594 644.296 26.1276 644.194 26.349C643.802 27.3709 640.719 35.7678 640.583 36.1936C640.464 36.5513 640.413 35.0524 640.43 31.4246L640.447 26.1446L639.68 26.0935C639.255 26.0594 638.846 26.0935 638.778 26.1616Z" fill="white"/>
<path d="M648.656 26.1616C648.588 26.2298 648.537 29.6192 648.537 33.6728V41.0648L649.491 41.0137L650.445 40.9626L651.978 36.8749C652.829 34.6266 653.681 32.2421 653.902 31.5949L654.294 30.4026L654.311 35.7167L654.328 41.0478H655.18H656.031V33.5536V26.0594H655.112H654.192L652.557 30.4367C651.671 32.8553 650.785 35.2568 650.615 35.7678L650.291 36.7046L650.308 31.4246L650.325 26.1446L649.559 26.0935C649.133 26.0594 648.724 26.0935 648.656 26.1616Z" fill="white"/>
<path d="M663.1 26.2639C663.066 26.3831 662.997 28.1204 662.929 30.1131C662.725 36.9941 662.486 38.6633 661.635 39.1402C661.192 39.3957 661.141 39.5149 661.141 40.3154C661.141 41.167 661.158 41.2181 661.584 41.2181C662.282 41.2181 663.151 40.7242 663.525 40.111C664.087 39.2083 664.36 37.4881 664.547 33.5536C664.65 31.5438 664.769 29.4829 664.82 28.989L664.905 28.1033H666.182H667.443V34.5756V41.0478H668.38H669.316V33.5536V26.0595H666.251C663.934 26.0595 663.151 26.1106 663.1 26.2639Z" fill="white"/>
<path d="M671.871 33.5537V41.0479H672.723H673.574V33.5537V26.0595H672.723H671.871V33.5537Z" fill="white"/>
<path d="M676.078 26.1617C676.01 26.2298 675.959 29.6022 675.959 33.6729V41.0479H676.896H677.833V38.4419C677.833 36.0404 677.867 35.8019 678.224 35.2058L678.633 34.5415L680.132 37.7947L681.648 41.0479H682.653C683.555 41.0479 683.641 41.0138 683.538 40.7072C683.487 40.5369 682.602 38.6463 681.563 36.5513C680.541 34.4394 679.706 32.668 679.706 32.6169C679.706 32.5658 680.438 31.2032 681.307 29.5852C682.193 27.9671 682.976 26.5194 683.044 26.349C683.13 26.0936 683.027 26.0595 682.125 26.0595H681.12L679.553 29.0401C678.701 30.6582 677.986 32.1059 677.969 32.2252C677.952 32.3444 677.884 31.0329 677.833 29.2956L677.747 26.1447L676.981 26.0936C676.555 26.0595 676.146 26.0936 676.078 26.1617Z" fill="white"/>
<path d="M685.599 33.1619C684.782 37.0793 684.066 40.4517 684.015 40.6561C683.93 41.0308 683.981 41.0478 684.867 41.0478H685.821L685.991 40.1451C686.093 39.6682 686.212 38.9699 686.281 38.6122L686.383 37.982H688.052H689.704L689.908 39.055C690.317 41.2692 690.181 41.0478 691.22 41.0478C691.731 41.0478 692.14 41.0137 692.14 40.9626C692.14 40.9115 691.458 37.6073 690.607 33.6047C689.772 29.6192 689.074 26.2809 689.074 26.1957C689.074 26.1276 688.631 26.0595 688.086 26.0595H687.098L685.599 33.1619ZM688.29 30.3516C688.358 30.9477 688.597 32.3273 688.835 33.4514C689.414 36.2958 689.466 36.1085 688.052 36.1085C687.217 36.1085 686.86 36.0403 686.86 35.887C686.86 35.7848 687.098 34.4734 687.371 32.9745C687.66 31.4927 687.882 30.062 687.882 29.7895C687.882 28.8868 688.171 29.2785 688.29 30.3516Z" fill="white"/>
<path d="M693.672 33.5366V41.0479H694.524H695.376V38.4249V35.819L696.806 35.7338C697.999 35.6657 698.356 35.5805 698.935 35.2058C699.991 34.5075 700.519 33.3323 700.622 31.4076C700.724 29.5511 700.383 28.2226 699.6 27.3369C698.714 26.315 698.271 26.1787 695.853 26.0936L693.672 26.0254V33.5366ZM697.675 28.3418C698.493 28.6825 698.816 29.4319 698.816 30.9137C698.816 32.9916 698.203 33.724 696.449 33.724H695.376V30.9137V28.1034H696.227C696.704 28.1034 697.351 28.2056 697.675 28.3418Z" fill="white"/>
<path d="M577.513 33.5877C576.951 34.4564 576.491 35.3591 576.491 35.5976C576.491 35.819 576.968 36.7217 577.53 37.5903L578.586 39.1743H579.42C580.051 39.1743 580.221 39.1232 580.136 38.9529C580.068 38.8507 579.557 38.0332 578.995 37.1815L577.99 35.5976L578.858 34.2179C579.352 33.4515 579.863 32.651 580.017 32.4296L580.272 32.0208H579.403H578.518L577.513 33.5877Z" fill="white"/>
<path d="M580.749 33.5877C580.17 34.4734 579.727 35.3591 579.727 35.5976C579.727 35.836 580.187 36.7387 580.749 37.5903L581.771 39.1743H582.639H583.508L583.253 38.7655C583.099 38.5441 582.588 37.7266 582.094 36.9772L581.226 35.5976L582.333 33.8092L583.457 32.0208H582.605H581.754L580.749 33.5877Z" fill="white"/>
<path d="M701.678 32.14C701.678 32.1911 702.138 32.9576 702.7 33.8432C703.262 34.7119 703.722 35.4954 703.722 35.5635C703.722 35.6486 703.228 36.4832 702.632 37.437L701.524 39.1743L702.41 39.1573H703.296L704.284 37.6244C704.897 36.6535 705.254 35.9212 705.254 35.5976C705.254 35.2739 704.897 34.5416 704.284 33.5537L703.296 32.0208H702.495C702.035 32.0208 701.678 32.0719 701.678 32.14Z" fill="white"/>
<path d="M705.868 33.741C706.481 34.6948 706.941 35.5635 706.889 35.6997C706.838 35.819 706.344 36.6535 705.782 37.5392L704.76 39.1743H705.612H706.464L707.469 37.6074C708.082 36.6706 708.49 35.853 708.49 35.5805C708.49 35.308 708.082 34.4734 707.52 33.5707L706.532 32.0378L705.646 32.0208H704.743L705.868 33.741Z" fill="white"/>
<path d="M744.49 20.775L1196.49 20.7751" stroke="url(#paint1_linear_97_421)" stroke-linecap="round"/>
<defs>
<linearGradient id="paint0_linear_97_421" x1="9.50481" y1="21.2724" x2="489.234" y2="20.8523" gradientUnits="userSpaceOnUse">
<stop stop-color="white" stop-opacity="0"/>
<stop offset="1" stop-color="white" stop-opacity="0.87"/>
</linearGradient>
<linearGradient id="paint1_linear_97_421" x1="1188.83" y1="20.2777" x2="744.49" y2="20.2773" gradientUnits="userSpaceOnUse">
<stop stop-color="white" stop-opacity="0"/>
<stop offset="1" stop-color="white" stop-opacity="0.87"/>
</linearGradient>
</defs>
</svg>
