<svg width="184" height="42" viewBox="0 0 184 42" fill="none" xmlns="http://www.w3.org/2000/svg">
<path d="M46.8581 3.86634C46.807 6.01241 46.7729 12.2632 46.7559 17.7987C46.7388 23.3171 46.6707 30.7432 46.6026 34.2689C46.5174 40.0087 46.5174 40.707 46.7559 40.707C47.0454 40.707 47.1306 36.449 47.3179 12.127C47.3861 1.66919 47.369 3.05176e-05 47.1646 3.05176e-05C46.9603 3.05176e-05 46.9092 0.647255 46.8581 3.86634Z" fill="white"/>
<path d="M14.8716 2.67413C14.8716 3.96858 14.9567 5.29709 15.0419 5.65477C15.2974 6.55748 15.9957 7.13657 18.1929 8.27773L20.1516 9.28263V10.8496C20.1516 11.7182 20.2027 12.4336 20.2538 12.4336C20.3219 12.4336 21.0713 12.0759 21.9229 11.6501C25.2953 9.92986 26.2491 8.94199 26.6408 6.82999C26.8282 5.7229 26.8112 3.52574 26.5897 3.32136C26.5387 3.25323 25.8574 3.55981 25.0739 3.96858C24.2904 4.39439 23.1322 4.99051 22.519 5.33116L21.3949 5.92729L21.1224 4.95645C20.7647 3.662 20.0494 3.01478 17.3413 1.55001C16.132 0.885749 15.076 0.340718 15.0078 0.340718C14.9227 0.340718 14.8716 1.39672 14.8716 2.67413ZM17.1369 2.6571C19.2148 3.73013 19.9812 4.87129 20.1175 7.17064C20.1686 7.92006 20.1345 8.51618 20.0834 8.51618C20.0153 8.51618 19.7598 8.27773 19.5214 8.00522C19.2829 7.71567 18.772 7.32393 18.3802 7.11954C17.3072 6.59154 16.5918 5.82509 16.3193 4.87129C16.0809 4.07077 15.9616 2.21426 16.149 2.21426C16.2001 2.21426 16.6429 2.41865 17.1369 2.6571ZM25.4316 6.09761C25.4316 7.37502 24.8184 8.65244 23.9327 9.24857C23.2685 9.67437 21.5993 10.56 21.429 10.56C21.3779 10.56 21.3438 10.0661 21.3438 9.45296C21.3438 8.24367 21.6163 7.40909 22.1443 6.94922C22.519 6.60857 25.0909 5.10974 25.2953 5.10974C25.3805 5.10974 25.4316 5.55258 25.4316 6.09761Z" fill="#2F9734"/>
<path d="M57.2307 0.613354C57.1625 0.681482 57.1115 4.05386 57.1115 8.12456V15.4995H58.0482H58.985V12.8936C58.985 10.492 59.0191 10.2536 59.3767 9.65746L59.7855 8.9932L61.3014 12.2464L62.8172 15.4995H63.7881C64.3501 15.4995 64.7759 15.4314 64.7759 15.3292C64.7759 15.227 64.2139 14.0177 63.5326 12.6381C62.8343 11.2585 61.9486 9.43604 61.5569 8.58443L60.8245 7.0345L62.4425 4.07089C63.3452 2.4358 64.1287 0.97103 64.1969 0.800708C64.282 0.545225 64.1798 0.511161 63.2771 0.511161H62.2552L61.4376 2.07812C60.9778 2.94677 60.2624 4.34341 59.8366 5.17799L59.0702 6.69386L58.985 3.64509L58.8998 0.596322L58.1334 0.545225C57.7076 0.511161 57.2988 0.545225 57.2307 0.613354Z" fill="white"/>
<path d="M67.0753 0.715511C67.0412 0.834737 66.9731 2.53796 66.905 4.5137C66.7857 8.55033 66.5643 11.6843 66.2918 12.6551C66.1726 13.0979 65.9512 13.4045 65.6105 13.5919C65.1677 13.8474 65.1166 13.9666 65.1166 14.7671C65.1166 15.6187 65.1336 15.6698 65.5594 15.6698C66.2577 15.6698 67.1264 15.1759 67.5011 14.5627C68.0632 13.66 68.3357 11.9397 68.523 8.0053C68.6252 5.9955 68.7444 3.9346 68.7955 3.44067L68.8807 2.55499H70.1581H71.4185V9.02723V15.4995H72.3553H73.292V8.0053V0.511125H70.2262C67.9099 0.511125 67.1264 0.562222 67.0753 0.715511Z" fill="white"/>
<path d="M75.8469 8.00534V15.4995H76.6985H77.5501V8.00534V0.511161H76.6985H75.8469V8.00534Z" fill="white"/>
<path d="M80.105 8.00534V15.4995H80.9566H81.8082V12.1782V8.85695H83.5966H85.385V12.1782V15.4995H86.2366H87.0882V8.00534V0.511161H86.2366H85.385V3.74728V6.9834H83.5966H81.8082V3.74728V0.511161H80.9566H80.105V8.00534Z" fill="white"/>
<path d="M89.8134 8.00534V15.4995H90.665H91.5166V8.00534V0.511161H90.665H89.8134V8.00534Z" fill="white"/>
<path d="M94.0203 0.613306C93.9522 0.681436 93.9011 4.05381 93.9011 8.12452V15.4995H94.8379H95.7747V12.8935C95.7747 10.492 95.8087 10.2535 96.1664 9.65741L96.5581 8.99316L98.091 12.2463L99.6069 15.4995H100.595C101.804 15.4995 101.821 15.6868 100.203 12.4337C99.5899 11.1733 98.7383 9.436 98.3465 8.58439L97.6141 7.03445L99.2322 4.07085C100.135 2.43575 100.918 0.970983 100.987 0.800661C101.089 0.528145 101.004 0.494081 100.033 0.545177L98.9767 0.596274L97.4268 3.62801L95.8598 6.67678L95.7747 3.62801L95.6895 0.596274L94.9231 0.545177C94.4973 0.511113 94.0885 0.545177 94.0203 0.613306Z" fill="white"/>
<path d="M104.972 0.647418C104.972 0.715548 104.325 3.88354 103.524 7.68172C102.724 11.4629 102.025 14.7671 101.974 15.0226C101.872 15.4995 101.889 15.4995 102.809 15.4995H103.763L103.933 14.5968C104.035 14.1199 104.154 13.4216 104.223 13.0639L104.325 12.4337H105.994H107.663L107.953 13.9666L108.242 15.4995H109.179C110.099 15.4995 110.116 15.4995 110.013 15.0226C109.962 14.7671 109.264 11.4629 108.464 7.68172C107.663 3.88354 107.016 0.715548 107.016 0.647418C107.016 0.579289 106.556 0.511161 105.994 0.511161C105.432 0.511161 104.972 0.579289 104.972 0.647418ZM106.232 4.80328C106.3 5.39941 106.539 6.77902 106.777 7.90314C107.356 10.7475 107.408 10.5602 105.994 10.5602C105.159 10.5602 104.802 10.492 104.802 10.3387C104.802 10.2366 105.04 8.92508 105.313 7.42624C105.602 5.94444 105.824 4.51373 105.824 4.24122C105.824 3.33851 106.113 3.73025 106.232 4.80328Z" fill="white"/>
<path d="M28.4122 10.8497C27.7139 11.0029 26.9985 11.3266 25.5167 12.1952C22.9278 13.694 20.7817 14.222 18.9423 13.7962C18.4313 13.694 16.9836 13.1149 15.7232 12.5188C14.4628 11.9397 12.8618 11.3095 12.1805 11.1562C9.62565 10.5431 6.2703 11.2244 4.22643 12.7743C2.33586 14.2391 0.888117 16.9302 0.411215 19.9449C0.138699 21.597 0.189796 25.1908 0.496376 26.7067C1.29689 30.7092 3.51108 35.0524 6.04888 37.6584C7.36036 39.0039 8.34823 39.7022 10.0515 40.4857C11.7717 41.2862 13.1683 41.3714 16.0638 40.9115C19.9642 40.2813 19.8109 40.2813 22.6383 40.9456C25.4826 41.6269 26.8963 41.712 28.6336 41.3033C30.2687 40.9115 31.4269 40.2984 32.4999 39.2083C33.607 38.1012 34.2883 36.7727 35.2421 33.9794C35.8042 32.3443 35.8893 31.9015 35.8723 30.573C35.8723 28.6994 35.4465 27.4731 34.4416 26.3319C33.0279 24.7139 31.3247 24.1518 27.9523 24.1518C26.743 24.1518 25.7722 24.0837 25.7722 24.0156C25.7722 23.9304 25.9255 23.181 26.1299 22.3294C26.4535 20.9327 26.5386 20.7454 26.9985 20.5069C27.271 20.3707 27.4754 20.2174 27.4413 20.1833C27.3051 20.0471 23.0641 19.6213 22.7405 19.7064C22.3828 19.7916 22.3657 19.8767 22.3657 22.159C22.3657 24.271 22.3317 24.5436 22.0762 24.6628C21.6504 24.8161 17.0006 24.8161 16.0298 24.6458C14.8716 24.4414 14.9397 24.8331 16.2341 25.6847C17.3753 26.4512 18.3121 26.7067 20.6285 26.8599L22.1954 26.9621V27.7456C22.2125 29.9428 22.9448 33.0767 23.575 33.6558C23.9327 33.9794 23.9497 33.9624 24.2393 31.9355C24.3415 31.2713 24.5799 29.8746 24.7843 28.8186L25.125 26.911H27.0326C29.9621 26.911 31.478 27.439 32.0911 28.6483C32.6702 29.7725 32.4829 31.4416 31.5631 33.7921C30.439 36.6364 29.5363 37.6073 27.6798 37.999C26.5046 38.2375 25.3975 38.1353 23.047 37.5562C20.7477 37.0111 19.0956 37.0111 15.9105 37.5562C14.565 37.7946 13.2024 37.982 12.9129 37.982C12.6063 37.982 11.7376 37.6754 10.9712 37.2837C6.38952 34.9843 2.57431 27.3539 3.03418 21.3756C3.42592 16.4362 5.48682 13.7622 9.42126 13.0809C10.886 12.8254 11.8398 12.9957 13.9859 13.8814C17.8011 15.4824 18.0736 15.5505 19.8961 15.5676C22.2295 15.5676 23.7454 15.0736 26.2491 13.4726C27.9012 12.4166 28.5655 12.1271 29.7237 11.9908C32.2444 11.7013 34.9526 13.1149 35.9915 15.244C36.4003 16.0785 36.8261 18.1905 36.8431 19.502C36.8772 20.9327 37.0986 21.1541 37.32 20.013C37.7288 18.0373 37.4222 15.8912 36.5536 14.2561C35.719 12.7232 33.7944 11.3436 31.8868 10.9178C31.1373 10.7475 29.0594 10.6964 28.4122 10.8497Z" fill="#E90307"/>
<path d="M95.8257 22.7722C95.979 23.6579 96.4389 24.2199 97.2564 24.5095C98.2954 24.8842 99.13 24.5265 99.658 23.5046C100.203 22.4315 100.152 22.142 99.4876 22.142C99.0448 22.142 98.8574 22.2442 98.636 22.653C98.4316 22.9936 98.2102 23.1639 97.9377 23.1639C97.5119 23.1639 96.9669 22.7041 96.9669 22.3464C96.9669 22.2272 96.7114 22.142 96.3537 22.142H95.7235L95.8257 22.7722Z" fill="white"/>
<path d="M125.24 22.4827C125.24 23.0448 125.683 23.9475 126.109 24.2541C127.199 25.0035 128.63 24.6288 129.175 23.4365C129.652 22.3976 129.601 22.1421 128.953 22.1421C128.511 22.1421 128.323 22.2443 128.102 22.653C127.897 22.9937 127.676 23.164 127.403 23.164C126.978 23.164 126.433 22.7041 126.433 22.3465C126.433 22.2272 126.177 22.1421 125.836 22.1421C125.343 22.1421 125.24 22.2102 125.24 22.4827Z" fill="white"/>
<path d="M62.1359 26.1276C61.4546 26.4342 60.9607 26.9962 60.4838 28.0182C60.1091 28.8357 60.092 29.0231 60.092 33.5536C60.092 38.0842 60.1091 38.2716 60.4838 39.0891C61.2162 40.6901 62.0337 41.2181 63.7029 41.2181C65.8489 41.2011 66.9901 40.0599 67.3989 37.5051L67.5011 36.7898H66.5813H65.6786L65.5594 37.4881C65.3891 38.51 64.6737 39.1743 63.7199 39.1743C62.8853 39.1743 62.3914 38.7996 62.0678 37.9309C61.9486 37.6414 61.8804 35.9041 61.8804 33.5536C61.8804 31.2032 61.9486 29.4659 62.0678 29.1764C62.3914 28.3248 62.8853 27.933 63.6688 27.933C64.7589 27.933 65.2187 28.4099 65.5253 29.8406C65.6275 30.2835 65.6956 30.3175 66.4791 30.3175C67.2967 30.3175 67.3307 30.3005 67.3307 29.8406C67.3307 28.3758 66.2918 26.5875 65.1676 26.1276C64.4693 25.821 62.8002 25.838 62.1359 26.1276Z" fill="white"/>
<path d="M69.3748 33.5537V41.0479H70.2264H71.078V33.5537V26.0595H70.2264H69.3748V33.5537Z" fill="white"/>
<path d="M73.5816 26.1617C73.5135 26.2298 73.4624 29.6022 73.4624 33.6729V41.0479H74.4332H75.387L75.3019 35.7168L75.1997 30.4027L75.8639 32.5317C76.2387 33.707 76.7667 35.308 77.0221 36.1085L77.499 37.5562L78.4188 37.6073L79.3555 37.6584L80.4456 34.1328L81.5527 30.5901L81.6038 35.819L81.6379 41.0479H82.4895H83.3411V33.5537V26.0595H82.4213H81.5186L80.3945 29.2445C79.7814 31.0159 79.1001 33.0427 78.8957 33.7581C78.6743 34.4904 78.4869 35.0525 78.4528 35.0184C78.4188 35.0014 77.7205 32.9916 76.9029 30.556L75.4041 26.1447L74.5525 26.0936C74.0926 26.0595 73.6498 26.0936 73.5816 26.1617Z" fill="white"/>
<path d="M85.8959 33.5537V41.0479H88.9617H92.0275V40.0259V39.004H89.8133H87.5991V36.7046V34.4053H89.5578H91.5165V33.4685V32.5317H89.5578H87.5991V30.3176V28.1034H89.7281H91.8572V27.0814V26.0595H88.8765H85.8959V33.5537Z" fill="white"/>
<path d="M94.1906 26.1616C94.1225 26.2298 94.0714 29.6192 94.0714 33.6728V41.0648L95.0422 41.0137L96.0131 40.9626L97.018 38.2375C97.58 36.7386 98.4317 34.3541 98.9426 32.9575L99.8453 30.4026V35.7167L99.8624 41.0478H100.714H101.566V33.5536V26.0594H100.646H99.7261L98.091 30.4367C97.2053 32.8553 96.3197 35.2568 96.1493 35.7678L95.8257 36.7046L95.8428 31.4246L95.8598 26.1446L95.0933 26.0935C94.6675 26.0594 94.2588 26.0935 94.1906 26.1616Z" fill="white"/>
<path d="M104.12 33.5537V41.0479H104.972H105.824V37.7266V34.4053H107.612H109.4V37.7266V41.0479H110.252H111.104V33.5537V26.0595H110.252H109.4V29.2956V32.5317H107.612H105.824V29.2956V26.0595H104.972H104.12V33.5537Z" fill="white"/>
<path d="M113.778 26.1616C113.71 26.2298 113.658 29.6192 113.658 33.6728V41.0648L114.612 41.0137L115.566 40.9626L116.843 37.5562C117.559 35.6826 118.427 33.2981 118.785 32.2762L119.432 30.4026L119.449 35.7167V41.0478H120.301H121.153V33.5536V26.0594H120.233C119.518 26.0594 119.296 26.1276 119.194 26.349C118.802 27.3709 115.719 35.7678 115.583 36.1936C115.464 36.5513 115.413 35.0524 115.43 31.4246L115.447 26.1446L114.68 26.0935C114.255 26.0594 113.846 26.0935 113.778 26.1616Z" fill="white"/>
<path d="M123.656 26.1616C123.588 26.2298 123.537 29.6192 123.537 33.6728V41.0648L124.491 41.0137L125.445 40.9626L126.978 36.8749C127.829 34.6266 128.681 32.2421 128.902 31.5949L129.294 30.4026L129.311 35.7167L129.328 41.0478H130.18H131.031V33.5536V26.0594H130.112H129.192L127.557 30.4367C126.671 32.8553 125.785 35.2568 125.615 35.7678L125.291 36.7046L125.308 31.4246L125.325 26.1446L124.559 26.0935C124.133 26.0594 123.724 26.0935 123.656 26.1616Z" fill="white"/>
<path d="M138.1 26.2639C138.066 26.3831 137.997 28.1204 137.929 30.1131C137.725 36.9941 137.486 38.6633 136.635 39.1402C136.192 39.3957 136.141 39.5149 136.141 40.3154C136.141 41.167 136.158 41.2181 136.584 41.2181C137.282 41.2181 138.151 40.7242 138.525 40.111C139.087 39.2083 139.36 37.4881 139.547 33.5536C139.65 31.5438 139.769 29.4829 139.82 28.989L139.905 28.1033H141.182H142.443V34.5756V41.0478H143.38H144.316V33.5536V26.0595H141.251C138.934 26.0595 138.151 26.1106 138.1 26.2639Z" fill="white"/>
<path d="M146.871 33.5537V41.0479H147.723H148.574V33.5537V26.0595H147.723H146.871V33.5537Z" fill="white"/>
<path d="M151.078 26.1617C151.01 26.2298 150.959 29.6022 150.959 33.6729V41.0479H151.896H152.833V38.4419C152.833 36.0404 152.867 35.8019 153.224 35.2058L153.633 34.5415L155.132 37.7947L156.648 41.0479H157.653C158.555 41.0479 158.641 41.0138 158.538 40.7072C158.487 40.5369 157.602 38.6463 156.563 36.5513C155.541 34.4394 154.706 32.668 154.706 32.6169C154.706 32.5658 155.438 31.2032 156.307 29.5852C157.193 27.9671 157.976 26.5194 158.044 26.349C158.13 26.0936 158.027 26.0595 157.125 26.0595H156.12L154.553 29.0401C153.701 30.6582 152.986 32.1059 152.969 32.2252C152.952 32.3444 152.884 31.0329 152.833 29.2956L152.747 26.1447L151.981 26.0936C151.555 26.0595 151.146 26.0936 151.078 26.1617Z" fill="white"/>
<path d="M160.599 33.1619C159.782 37.0793 159.066 40.4517 159.015 40.6561C158.93 41.0308 158.981 41.0478 159.867 41.0478H160.821L160.991 40.1451C161.093 39.6682 161.212 38.9699 161.281 38.6122L161.383 37.982H163.052H164.704L164.908 39.055C165.317 41.2692 165.181 41.0478 166.22 41.0478C166.731 41.0478 167.14 41.0137 167.14 40.9626C167.14 40.9115 166.458 37.6073 165.607 33.6047C164.772 29.6192 164.074 26.2809 164.074 26.1957C164.074 26.1276 163.631 26.0595 163.086 26.0595H162.098L160.599 33.1619ZM163.29 30.3516C163.358 30.9477 163.597 32.3273 163.835 33.4514C164.414 36.2958 164.466 36.1085 163.052 36.1085C162.217 36.1085 161.86 36.0403 161.86 35.887C161.86 35.7848 162.098 34.4734 162.371 32.9745C162.66 31.4927 162.882 30.062 162.882 29.7895C162.882 28.8868 163.171 29.2785 163.29 30.3516Z" fill="white"/>
<path d="M168.672 33.5366V41.0479H169.524H170.376V38.4249V35.819L171.806 35.7338C172.999 35.6657 173.356 35.5805 173.935 35.2058C174.991 34.5075 175.519 33.3323 175.622 31.4076C175.724 29.5511 175.383 28.2226 174.6 27.3369C173.714 26.315 173.271 26.1787 170.853 26.0936L168.672 26.0254V33.5366ZM172.675 28.3418C173.493 28.6825 173.816 29.4319 173.816 30.9137C173.816 32.9916 173.203 33.724 171.449 33.724H170.376V30.9137V28.1034H171.227C171.704 28.1034 172.351 28.2056 172.675 28.3418Z" fill="white"/>
<path d="M52.5128 33.5877C51.9507 34.4564 51.4908 35.3591 51.4908 35.5976C51.4908 35.819 51.9677 36.7217 52.5298 37.5903L53.5858 39.1743H54.4204C55.0506 39.1743 55.2209 39.1232 55.1357 38.9529C55.0676 38.8507 54.5566 38.0332 53.9946 37.1815L52.9897 35.5976L53.8583 34.2179C54.3523 33.4515 54.8632 32.651 55.0165 32.4296L55.272 32.0208H54.4034H53.5177L52.5128 33.5877Z" fill="white"/>
<path d="M55.7489 33.5877C55.1698 34.4734 54.7269 35.3591 54.7269 35.5976C54.7269 35.836 55.1868 36.7387 55.7489 37.5903L56.7708 39.1743H57.6394H58.5081L58.2526 38.7655C58.0993 38.5441 57.5883 37.7266 57.0944 36.9772L56.2258 35.5976L57.3329 33.8092L58.457 32.0208H57.6054H56.7538L55.7489 33.5877Z" fill="white"/>
<path d="M176.678 32.14C176.678 32.1911 177.138 32.9576 177.7 33.8432C178.262 34.7119 178.722 35.4954 178.722 35.5635C178.722 35.6486 178.228 36.4832 177.632 37.437L176.524 39.1743L177.41 39.1573H178.296L179.284 37.6244C179.897 36.6535 180.254 35.9212 180.254 35.5976C180.254 35.2739 179.897 34.5416 179.284 33.5537L178.296 32.0208H177.495C177.035 32.0208 176.678 32.0719 176.678 32.14Z" fill="white"/>
<path d="M180.868 33.741C181.481 34.6948 181.941 35.5635 181.889 35.6997C181.838 35.819 181.344 36.6535 180.782 37.5392L179.76 39.1743H180.612H181.464L182.469 37.6074C183.082 36.6706 183.49 35.853 183.49 35.5805C183.49 35.308 183.082 34.4734 182.52 33.5707L181.532 32.0378L180.646 32.0208H179.743L180.868 33.741Z" fill="white"/>
</svg>
