<svg width="92" height="86" viewBox="0 0 92 86" fill="none" xmlns="http://www.w3.org/2000/svg">
<path d="M67.809 0.450012C71.0751 0.449372 74.2405 1.58062 76.7664 3.65121C79.2923 5.72179 81.0226 8.60374 81.6628 11.8065L82.7758 17.4H86.9625C87.9865 17.4001 88.9758 17.7709 89.7476 18.4439C90.5193 19.117 91.0212 20.0467 91.1604 21.0612L91.2 21.6375C91.1999 22.6615 90.8291 23.6508 90.1561 24.4226C89.483 25.1943 88.5533 25.6962 87.5388 25.8355L86.9625 25.875H84.4708L85.1036 29.039C86.863 29.5535 88.4081 30.6245 89.5072 32.0914C90.6064 33.5583 91.2003 35.342 91.2 37.175V65.425C91.2 67.6727 90.3071 69.8284 88.7177 71.4177C87.1283 73.0071 84.9727 73.9 82.725 73.9H79.9V79.55C79.9 81.0485 79.3047 82.4856 78.2451 83.5452C77.1856 84.6048 75.7485 85.2 74.25 85.2C72.7515 85.2 71.3144 84.6048 70.2548 83.5452C69.1953 82.4856 68.6 81.0485 68.6 79.55V73.9H23.4V79.55C23.4 81.0485 22.8047 82.4856 21.7451 83.5452C20.6856 84.6048 19.2485 85.2 17.75 85.2C16.2515 85.2 14.8144 84.6048 13.7548 83.5452C12.6953 82.4856 12.1 81.0485 12.1 79.55V73.9H9.27499C7.02728 73.9 4.87163 73.0071 3.28226 71.4177C1.69289 69.8284 0.799988 67.6727 0.799988 65.425V37.175C0.799631 35.342 1.39357 33.5583 2.49273 32.0914C3.59188 30.6245 5.137 29.5535 6.89634 29.039L7.52349 25.875H5.03749C3.91363 25.875 2.83581 25.4286 2.04112 24.6339C1.24644 23.8392 0.799988 22.7614 0.799988 21.6375C0.799988 20.5137 1.24644 19.4358 2.04112 18.6411C2.83581 17.8465 3.91363 17.4 5.03749 17.4H9.21849L10.3372 11.8065C10.9773 8.60374 12.7076 5.72179 15.2335 3.65121C17.7595 1.58062 20.9249 0.449372 24.191 0.450012H67.809ZM82.725 34.35H9.27499C8.52575 34.35 7.8072 34.6476 7.27741 35.1774C6.74762 35.7072 6.44999 36.4258 6.44999 37.175V65.425C6.44999 66.1742 6.74762 66.8928 7.27741 67.4226C7.8072 67.9524 8.52575 68.25 9.27499 68.25H82.725C83.4742 68.25 84.1928 67.9524 84.7226 67.4226C85.2524 66.8928 85.55 66.1742 85.55 65.425V37.175C85.55 36.4258 85.2524 35.7072 84.7226 35.1774C84.1928 34.6476 83.4742 34.35 82.725 34.35ZM23.4 45.65C24.8985 45.65 26.3356 46.2453 27.3951 47.3049C28.4547 48.3644 29.05 49.8015 29.05 51.3C29.05 52.7985 28.4547 54.2356 27.3951 55.2952C26.3356 56.3547 24.8985 56.95 23.4 56.95C21.9015 56.95 20.4644 56.3547 19.4048 55.2952C18.3453 54.2356 17.75 52.7985 17.75 51.3C17.75 49.8015 18.3453 48.3644 19.4048 47.3049C20.4644 46.2453 21.9015 45.65 23.4 45.65ZM68.6 45.65C70.0985 45.65 71.5356 46.2453 72.5951 47.3049C73.6547 48.3644 74.25 49.8015 74.25 51.3C74.25 52.7985 73.6547 54.2356 72.5951 55.2952C71.5356 56.3547 70.0985 56.95 68.6 56.95C67.1015 56.95 65.6644 56.3547 64.6048 55.2952C63.5453 54.2356 62.95 52.7985 62.95 51.3C62.95 49.8015 63.5453 48.3644 64.6048 47.3049C65.6644 46.2453 67.1015 45.65 68.6 45.65ZM67.809 6.10001H24.191C22.2315 6.09989 20.3325 6.77876 18.8172 8.02109C17.3019 9.26342 16.2639 10.9924 15.8798 12.9139L12.7158 28.7H79.2785L76.1201 12.9139C75.7363 10.9934 74.6991 9.2651 73.1849 8.02288C71.6708 6.78066 69.7731 6.1012 67.8146 6.10001H67.809Z" fill="#EE2922"/>
</svg>
