<svg width="108" height="86" viewBox="0 0 108 86" fill="none" xmlns="http://www.w3.org/2000/svg">
<path d="M0.960635 42.9058C0.629271 42.5728 0.443255 42.122 0.443255 41.6522C0.443255 41.1824 0.629271 40.7317 0.960635 40.3986C1.04002 40.3151 1.13124 40.2438 1.23136 40.1868C1.32679 40.1204 1.42946 40.0651 1.53741 40.022C1.64294 39.9744 1.7535 39.9389 1.86699 39.916C2.09319 39.8807 2.3235 39.8807 2.5497 39.916C2.66319 39.9389 2.77375 39.9744 2.87928 40.022C2.98722 40.0651 3.0899 40.1204 3.18532 40.1868C3.28324 40.247 3.37405 40.3181 3.45605 40.3986C3.70739 40.6441 3.87805 40.9603 3.94534 41.3051C4.01262 41.65 3.97334 42.0071 3.83272 42.3291C3.79369 42.4366 3.74234 42.5393 3.6797 42.6351C3.61163 42.7305 3.53689 42.821 3.45605 42.9058C3.37109 42.983 3.28061 43.0538 3.18532 43.1177C3.0899 43.1841 2.98722 43.2394 2.87928 43.2825C2.77375 43.3301 2.66319 43.3656 2.5497 43.3884C2.43623 43.4005 2.32181 43.4005 2.20834 43.3884C2.09488 43.4005 1.98045 43.4005 1.86699 43.3884C1.7535 43.3656 1.64294 43.3301 1.53741 43.2825C1.42946 43.2394 1.32679 43.1841 1.23136 43.1177C1.13403 43.0566 1.0433 42.9856 0.960635 42.9058ZM107.557 49.6505V76.3232C107.557 76.7915 107.371 77.2406 107.04 77.5717C106.709 77.9028 106.26 78.0888 105.792 78.0888H94.374C93.9351 80.3372 92.6746 82.3416 90.8383 83.7112C89.002 85.0808 86.7214 85.7175 84.4412 85.497C82.161 85.2766 80.0446 84.2148 78.5046 82.5188C76.9647 80.8228 76.1115 78.6141 76.1115 76.3232C76.1115 74.0324 76.9647 71.8237 78.5046 70.1276C80.0446 68.4316 82.161 67.3699 84.4412 67.1494C86.7214 66.929 89.002 67.5656 90.8383 68.9352C92.6746 70.3048 93.9351 72.3092 94.374 74.5576H104.026V63.9638H91.6667C91.1984 63.9638 90.7493 63.7778 90.4182 63.4467C90.0871 63.1156 89.9011 62.6665 89.9011 62.1982V54.8414C89.9011 54.3732 90.0871 53.9241 90.4182 53.593C90.7493 53.2618 91.1984 53.0758 91.6667 53.0758H104.026V50.7923L88.877 44.0358H66.3123C65.844 44.0358 65.3949 43.8498 65.0638 43.5187C64.7327 43.1876 64.5467 42.7385 64.5467 42.2702V28.9927C64.5467 28.5244 64.7327 28.0753 65.0638 27.7442C65.3949 27.4131 65.844 27.2271 66.3123 27.2271C66.7806 27.2271 67.2297 27.4131 67.5608 27.7442C67.8919 28.0753 68.0779 28.5244 68.0779 28.9927V40.5046H86.1462L77.1297 25.3437H55.7656V74.5576H71.7622C72.2305 74.5576 72.6796 74.7436 73.0107 75.0747C73.3418 75.4059 73.5278 75.8549 73.5278 76.3232C73.5278 76.7915 73.3418 77.2406 73.0107 77.5717C72.6796 77.9028 72.2305 78.0888 71.7622 78.0888H34.9666C34.4983 78.0888 34.0492 77.9028 33.7181 77.5717C33.387 77.2406 33.2009 76.7915 33.2009 76.3232C33.2009 75.8549 33.387 75.4059 33.7181 75.0747C34.0492 74.7436 34.4983 74.5576 34.9666 74.5576H52.2344V63.9638H3.97397V74.5576H12.9787C13.4176 72.306 14.6793 70.2986 16.5179 68.9268C18.3565 67.555 20.6401 66.9171 22.9234 67.1376C25.2068 67.3581 27.3261 68.4211 28.8683 70.1193C30.4105 71.8175 31.2648 74.0293 31.2648 76.3232C31.2648 78.6172 30.4105 80.8289 28.8683 82.5271C27.3261 84.2254 25.2068 85.2884 22.9234 85.5088C20.6401 85.7293 18.3565 85.0914 16.5179 83.7196C14.6793 82.3478 13.4176 80.3404 12.9787 78.0888H2.20834C1.74007 78.0888 1.29098 77.9028 0.959858 77.5717C0.628739 77.2406 0.442719 76.7915 0.442719 76.3232V48.1792C0.442719 47.7109 0.628739 47.2618 0.959858 46.9307C1.29098 46.5996 1.74007 46.4135 2.20834 46.4135C2.67662 46.4135 3.12571 46.5996 3.45683 46.9307C3.78795 47.2618 3.97397 47.7109 3.97397 48.1792V53.0758H52.2344V25.3437H3.97397V35.1488C3.97397 35.6171 3.78795 36.0662 3.45683 36.3973C3.12571 36.7284 2.67662 36.9145 2.20834 36.9145C1.74007 36.9145 1.29098 36.7284 0.959858 36.3973C0.628739 36.0662 0.442719 35.6171 0.442719 35.1488V23.5546C0.448908 23.0904 0.637658 22.6473 0.968108 22.3213C1.29856 21.9952 1.74412 21.8124 2.20834 21.8125H34.79C34.79 19.1589 35.8441 16.6141 37.7205 14.7377C39.5968 12.8614 42.1417 11.8073 44.7952 11.8073C47.4488 11.8073 49.9936 12.8614 51.87 14.7377C53.7463 16.6141 54.8004 19.1589 54.8004 21.8125H78.1302C78.4358 21.8131 78.7361 21.8925 79.0021 22.043C79.2681 22.1935 79.4908 22.4101 79.6487 22.6718L90.4896 40.893L106.521 48.0379C106.832 48.1772 107.095 48.4039 107.279 48.6902C107.463 48.9765 107.56 49.3102 107.557 49.6505ZM16.3333 76.3232C16.331 77.451 16.6635 78.5541 17.2886 79.4928C17.9137 80.4315 18.8033 81.1635 19.8448 81.5961C20.8863 82.0288 22.0328 82.1426 23.139 81.9232C24.2452 81.7037 25.2614 81.1609 26.0589 80.3634C26.8563 79.566 27.3992 78.5498 27.6186 77.4435C27.8381 76.3373 27.7242 75.1909 27.2916 74.1494C26.8589 73.1079 26.1269 72.2182 25.1882 71.5931C24.2495 70.968 23.1464 70.6356 22.0187 70.6379C20.5118 70.641 19.0675 71.241 18.002 72.3065C16.9364 73.3721 16.3365 74.8163 16.3333 76.3232ZM38.3213 21.8125H51.2692C51.2692 20.0955 50.5871 18.4488 49.373 17.2347C48.1589 16.0206 46.5122 15.3385 44.7952 15.3385C43.0782 15.3385 41.4315 16.0206 40.2174 17.2347C39.0033 18.4488 38.3213 20.0955 38.3213 21.8125ZM52.2344 60.4797V56.6071H3.97397V60.4797H52.2344ZM91.0781 76.3232C91.0781 75.1964 90.744 74.095 90.118 73.1581C89.492 72.2212 88.6022 71.491 87.5612 71.0598C86.5202 70.6286 85.3747 70.5158 84.2696 70.7356C83.1645 70.9554 82.1494 71.498 81.3526 72.2948C80.5559 73.0915 80.0133 74.1066 79.7934 75.2118C79.5736 76.3169 79.6864 77.4624 80.1176 78.5034C80.5488 79.5444 81.279 80.4342 82.2159 81.0602C83.1528 81.6862 84.2543 82.0203 85.3811 82.0203C86.8818 82.0048 88.3158 81.3977 89.3715 80.331C90.4272 79.2643 91.0194 77.824 91.0193 76.3232H91.0781ZM104.026 60.4797V56.6071H93.4323V60.4797H104.026ZM85.3222 73.6042C84.7839 73.6042 84.2578 73.7639 83.8104 74.0632C83.363 74.3625 83.0145 74.7879 82.809 75.2854C82.6036 75.783 82.5504 76.3303 82.6563 76.858C82.7622 77.3858 83.0223 77.8703 83.4037 78.2501C83.7852 78.6298 84.2708 78.8879 84.799 78.9915C85.3272 79.095 85.8743 79.0395 86.3709 78.8319C86.8676 78.6243 87.2914 78.274 87.5888 77.8253C87.8861 77.3766 88.0436 76.8497 88.0413 76.3115C88.0413 75.9549 87.9709 75.6019 87.8341 75.2727C87.6973 74.9435 87.4968 74.6445 87.2442 74.3929C86.9915 74.1414 86.6917 73.9422 86.3618 73.8068C86.032 73.6715 85.6787 73.6026 85.3222 73.6042ZM22.0187 79.0423C22.5569 79.0446 23.0838 78.8871 23.5325 78.5898C23.9812 78.2924 24.3315 77.8686 24.5391 77.3719C24.7467 76.8753 24.8023 76.3282 24.6987 75.8C24.5951 75.2718 24.3371 74.7862 23.9573 74.4048C23.5775 74.0233 23.093 73.7632 22.5652 73.6573C22.0375 73.5514 21.4902 73.6046 20.9926 73.81C20.4951 74.0155 20.0697 74.364 19.7704 74.8114C19.4711 75.2588 19.3114 75.7849 19.3114 76.3232C19.3098 76.6797 19.3787 77.0331 19.5141 77.3629C19.6494 77.6927 19.8486 77.9925 20.1001 78.2452C20.3517 78.4978 20.6507 78.6983 20.9799 78.8351C21.3091 78.9719 21.6621 79.0423 22.0187 79.0423ZM32.6124 31.3704V34.1366H35.3903C35.8586 34.1366 36.3077 34.3226 36.6388 34.6537C36.9699 34.9848 37.1559 35.4339 37.1559 35.9022V42.5409C37.1559 43.0092 36.9699 43.4583 36.6388 43.7894C36.3077 44.1205 35.8586 44.3066 35.3903 44.3066H32.6124V47.0727C32.6124 47.541 32.4264 47.9901 32.0953 48.3212C31.7641 48.6523 31.3151 48.8383 30.8468 48.8383H24.2198C23.7515 48.8383 23.3024 48.6523 22.9713 48.3212C22.6402 47.9901 22.4542 47.541 22.4542 47.0727V44.3066H19.6763C19.208 44.3066 18.7589 44.1205 18.4278 43.7894C18.0967 43.4583 17.9106 43.0092 17.9106 42.5409V35.9375C17.9106 35.4692 18.0967 35.0201 18.4278 34.689C18.7589 34.3579 19.208 34.1719 19.6763 34.1719H22.4542V31.3704C22.4542 30.9021 22.6402 30.453 22.9713 30.1219C23.3024 29.7908 23.7515 29.6048 24.2198 29.6048H30.8468C31.3151 29.6048 31.7641 29.7908 32.0953 30.1219C32.4264 30.453 32.6124 30.9021 32.6124 31.3704ZM30.8468 37.6678C30.3785 37.6678 29.9294 37.4818 29.5983 37.1507C29.2672 36.8195 29.0812 36.3704 29.0812 35.9022V33.136H25.9854V35.9375C25.9854 36.4058 25.7994 36.8549 25.4683 37.186C25.1372 37.5171 24.6881 37.7031 24.2198 37.7031H21.4419V40.8106H24.2198C24.6881 40.8106 25.1372 40.9966 25.4683 41.3278C25.7994 41.6589 25.9854 42.108 25.9854 42.5762V45.3542H29.0812V42.5409C29.0812 42.0727 29.2672 41.6236 29.5983 41.2924C29.9294 40.9613 30.3785 40.7753 30.8468 40.7753H33.6247V37.6678H30.8468ZM67.6306 57.3016C68.0989 57.3016 68.548 57.1155 68.8791 56.7844C69.2102 56.4533 69.3963 56.0042 69.3963 55.5359V51.8046C69.3963 51.3363 69.2102 50.8872 68.8791 50.5561C68.548 50.225 68.0989 50.0389 67.6306 50.0389H61.5098C61.0415 50.0389 60.5924 50.225 60.2613 50.5561C59.9302 50.8872 59.7442 51.3363 59.7442 51.8046C59.7442 52.2728 59.9302 52.7219 60.2613 53.0531C60.5924 53.3842 61.0415 53.5702 61.5098 53.5702H65.865V55.5359C65.865 56.0042 66.051 56.4533 66.3822 56.7844C66.7133 57.1155 67.1624 57.3016 67.6306 57.3016ZM45.3484 8.68801C45.8167 8.68801 46.2658 8.50199 46.5969 8.17087C46.9281 7.83975 47.1141 7.39066 47.1141 6.92238V2.21405C47.1141 1.74578 46.9281 1.29668 46.5969 0.965565C46.2658 0.634446 45.8167 0.448425 45.3484 0.448425C44.8802 0.448425 44.4311 0.634446 44.1 0.965565C43.7688 1.29668 43.5828 1.74578 43.5828 2.21405V6.92238C43.5828 7.39066 43.7688 7.83975 44.1 8.17087C44.4311 8.50199 44.8802 8.68801 45.3484 8.68801ZM55.8245 13.7024C56.2923 13.7007 56.7407 13.5146 57.0722 13.1845L60.4033 9.85332C60.7152 9.51862 60.885 9.07592 60.8769 8.61851C60.8689 8.16109 60.6836 7.72466 60.3601 7.40117C60.0366 7.07768 59.6002 6.89237 59.1427 6.8843C58.6853 6.87623 58.2426 7.04602 57.9079 7.3579L54.5768 10.689C54.3302 10.936 54.1623 11.2504 54.0943 11.5927C54.0263 11.935 54.0612 12.2898 54.1947 12.6122C54.3282 12.9347 54.5543 13.2103 54.8444 13.4043C55.1344 13.5984 55.4755 13.7021 55.8245 13.7024ZM33.2833 12.3958C33.6164 12.7272 34.0671 12.9132 34.5369 12.9132C35.0068 12.9132 35.4575 12.7272 35.7905 12.3958C36.1183 12.0633 36.3021 11.6151 36.3021 11.1481C36.3021 10.6812 36.1183 10.233 35.7905 9.9004L32.4594 6.5104C32.1268 6.18261 31.6786 5.99885 31.2117 5.99885C30.7447 5.99885 30.2965 6.18261 29.964 6.5104C29.7988 6.67353 29.6677 6.86782 29.5782 7.082C29.4888 7.29618 29.4427 7.52599 29.4427 7.75811C29.4427 7.99023 29.4888 8.22005 29.5782 8.43423C29.6677 8.64841 29.7988 8.84269 29.964 9.00582L33.2833 12.3958Z" fill="#EE2922"/>
</svg>
