<svg width="114" height="114" viewBox="0 0 114 114" fill="none" xmlns="http://www.w3.org/2000/svg">
<path d="M57 60.5312C66.7513 60.5312 74.6562 52.6263 74.6562 42.875C74.6562 33.1237 66.7513 25.2188 57 25.2188C47.2487 25.2188 39.3438 33.1237 39.3438 42.875C39.3438 52.6263 47.2487 60.5312 57 60.5312Z" stroke="#EE2922" stroke-width="3" stroke-linejoin="round"/>
<path d="M57 25.2188C57 27.5374 56.5433 29.8333 55.656 31.9755C54.7687 34.1177 53.4681 36.0641 51.8286 37.7036C50.1891 39.3431 48.2427 40.6437 46.1005 41.531C43.9583 42.4183 41.6624 42.875 39.3438 42.875" stroke="#EE2922" stroke-width="3" stroke-linejoin="round"/>
<path d="M57 25.2188C57 29.9015 58.8602 34.3924 62.1714 37.7036C65.4826 41.0148 69.9735 42.875 74.6562 42.875" stroke="#EE2922" stroke-width="3" stroke-linejoin="round"/>
<path d="M78.1875 99.375H88.7812C90.6543 99.375 92.4507 98.6309 93.7752 97.3064C95.0997 95.982 95.8438 94.1856 95.8438 92.3125V88.7812" stroke="#EE2922" stroke-width="3" stroke-linejoin="round"/>
<path d="M90.5469 78.1875H102.906C104.779 78.1875 106.576 77.4434 107.9 76.1189C109.225 74.7945 109.969 72.9981 109.969 71.125V67.5938H72.7847" stroke="#EE2922" stroke-width="3" stroke-linejoin="round"/>
<path d="M102.906 78.1875V81.7188C102.906 83.5918 102.162 85.3882 100.838 86.7127C99.5132 88.0372 97.7168 88.7812 95.8438 88.7812H87.0156" stroke="#EE2922" stroke-width="3" stroke-linejoin="round"/>
<path d="M35.8125 99.375H25.2188C23.3457 99.375 21.5493 98.6309 20.2248 97.3064C18.9003 95.982 18.1563 94.1856 18.1562 92.3125V88.7812" stroke="#EE2922" stroke-width="3" stroke-linejoin="round"/>
<path d="M23.4531 78.1875H11.0938C9.22066 78.1875 7.42428 77.4434 6.09981 76.1189C4.77533 74.7945 4.03125 72.9981 4.03125 71.125V67.5938H41.2153" stroke="#EE2922" stroke-width="3" stroke-linejoin="round"/>
<path d="M11.0938 78.1875V81.7188C11.0938 83.5918 11.8378 85.3882 13.1623 86.7127C14.4868 88.0372 16.2832 88.7812 18.1562 88.7812H26.9844" stroke="#EE2922" stroke-width="3" stroke-linejoin="round"/>
<path d="M57 60.5312C62.6193 60.5312 68.0084 62.7635 71.9818 66.7369C75.9553 70.7103 78.1875 76.0995 78.1875 81.7188V109.969H35.8125V81.7188C35.8125 76.0995 38.0447 70.7103 42.0182 66.7369C45.9916 62.7635 51.3807 60.5313 57 60.5312Z" stroke="#EE2922" stroke-width="3" stroke-linejoin="round"/>
<path d="M57 18.1562C67.7264 18.1562 76.4219 14.9943 76.4219 11.0938C76.4219 7.19324 67.7264 4.03125 57 4.03125C46.2736 4.03125 37.5781 7.19324 37.5781 11.0938C37.5781 14.9943 46.2736 18.1562 57 18.1562Z" stroke="#EE2922" stroke-width="3" stroke-linejoin="round"/>
<path d="M67.5938 64.0625L35.8125 95.8438" stroke="#EE2922" stroke-width="3" stroke-linejoin="round"/>
<path d="M72.8906 69.3594L35.8125 106.438" stroke="#EE2922" stroke-width="3" stroke-linejoin="round"/>
</svg>
