<svg width="114" height="114" viewBox="0 0 114 114" fill="none" xmlns="http://www.w3.org/2000/svg">
<path d="M78.809 17.45C82.0751 17.4494 85.2405 18.5806 87.7664 20.6512C90.2923 22.7218 92.0226 25.6037 92.6628 28.8065L93.7758 34.4H97.9625C98.9865 34.4001 99.9758 34.7709 100.748 35.4439C101.519 36.117 102.021 37.0467 102.16 38.0612L102.2 38.6375C102.2 39.6615 101.829 40.6508 101.156 41.4226C100.483 42.1943 99.5533 42.6962 98.5388 42.8355L97.9625 42.875H95.4708L96.1036 46.039C97.863 46.5535 99.4081 47.6245 100.507 49.0914C101.606 50.5583 102.2 52.342 102.2 54.175V82.425C102.2 84.6727 101.307 86.8284 99.7177 88.4177C98.1283 90.0071 95.9727 90.9 93.725 90.9H90.9V96.55C90.9 98.0485 90.3047 99.4856 89.2451 100.545C88.1856 101.605 86.7485 102.2 85.25 102.2C83.7515 102.2 82.3144 101.605 81.2548 100.545C80.1953 99.4856 79.6 98.0485 79.6 96.55V90.9H34.4V96.55C34.4 98.0485 33.8047 99.4856 32.7451 100.545C31.6856 101.605 30.2485 102.2 28.75 102.2C27.2515 102.2 25.8144 101.605 24.7548 100.545C23.6953 99.4856 23.1 98.0485 23.1 96.55V90.9H20.275C18.0273 90.9 15.8716 90.0071 14.2823 88.4177C12.6929 86.8284 11.8 84.6727 11.8 82.425V54.175C11.7996 52.342 12.3936 50.5583 13.4927 49.0914C14.5919 47.6245 16.137 46.5535 17.8963 46.039L18.5235 42.875H16.0375C14.9136 42.875 13.8358 42.4286 13.0411 41.6339C12.2464 40.8392 11.8 39.7614 11.8 38.6375C11.8 37.5137 12.2464 36.4358 13.0411 35.6411C13.8358 34.8465 14.9136 34.4 16.0375 34.4H20.2185L21.3372 28.8065C21.9773 25.6037 23.7076 22.7218 26.2335 20.6512C28.7595 18.5806 31.9249 17.4494 35.191 17.45H78.809ZM93.725 51.35H20.275C19.5258 51.35 18.8072 51.6476 18.2774 52.1774C17.7476 52.7072 17.45 53.4258 17.45 54.175V82.425C17.45 83.1742 17.7476 83.8928 18.2774 84.4226C18.8072 84.9524 19.5258 85.25 20.275 85.25H93.725C94.4742 85.25 95.1928 84.9524 95.7226 84.4226C96.2524 83.8928 96.55 83.1742 96.55 82.425V54.175C96.55 53.4258 96.2524 52.7072 95.7226 52.1774C95.1928 51.6476 94.4742 51.35 93.725 51.35ZM34.4 62.65C35.8985 62.65 37.3356 63.2453 38.3951 64.3049C39.4547 65.3644 40.05 66.8015 40.05 68.3C40.05 69.7985 39.4547 71.2356 38.3951 72.2952C37.3356 73.3547 35.8985 73.95 34.4 73.95C32.9015 73.95 31.4644 73.3547 30.4048 72.2952C29.3453 71.2356 28.75 69.7985 28.75 68.3C28.75 66.8015 29.3453 65.3644 30.4048 64.3049C31.4644 63.2453 32.9015 62.65 34.4 62.65ZM79.6 62.65C81.0985 62.65 82.5356 63.2453 83.5951 64.3049C84.6547 65.3644 85.25 66.8015 85.25 68.3C85.25 69.7985 84.6547 71.2356 83.5951 72.2952C82.5356 73.3547 81.0985 73.95 79.6 73.95C78.1015 73.95 76.6644 73.3547 75.6048 72.2952C74.5453 71.2356 73.95 69.7985 73.95 68.3C73.95 66.8015 74.5453 65.3644 75.6048 64.3049C76.6644 63.2453 78.1015 62.65 79.6 62.65ZM78.809 23.1H35.191C33.2315 23.0999 31.3325 23.7788 29.8172 25.0211C28.3019 26.2634 27.2639 27.9924 26.8798 29.9139L23.7158 45.7H90.2785L87.1201 29.9139C86.7363 27.9934 85.6991 26.2651 84.1849 25.0229C82.6708 23.7807 80.7731 23.1012 78.8146 23.1H78.809Z" fill="#EE2922"/>
</svg>
