<svg width="114" height="113" viewBox="0 0 114 113" fill="none" xmlns="http://www.w3.org/2000/svg">
<path d="M81.714 28.25C81.714 34.8058 79.1098 41.0931 74.4741 45.7288C69.8384 50.3645 63.5511 52.9688 56.9953 52.9688C50.4395 52.9688 44.1522 50.3645 39.5165 45.7288C34.8808 41.0931 32.2765 34.8058 32.2765 28.25V3.53125H81.714V28.25Z" stroke="#EE2922" stroke-width="4" stroke-linecap="round" stroke-linejoin="round"/>
<path d="M11.089 109.469C11.089 97.2937 15.9256 85.6172 24.5347 77.0081C33.1438 68.399 44.8202 63.5625 56.9953 63.5625C69.1704 63.5625 80.8468 68.399 89.4559 77.0081C98.065 85.6172 102.902 97.2937 102.902 109.469" stroke="#EE2922" stroke-width="4" stroke-linecap="round" stroke-linejoin="round"/>
<path d="M4.02654 3.53125H109.964" stroke="#EE2922" stroke-width="4" stroke-linecap="round" stroke-linejoin="round"/>
<path d="M32.2765 24.7188H81.714" stroke="#EE2922" stroke-width="4" stroke-linecap="round" stroke-linejoin="round"/>
<path d="M11.089 3.53125V38.8438" stroke="#EE2922" stroke-width="4" stroke-linecap="round" stroke-linejoin="round"/>
<path d="M33.5148 70.0176L56.9953 88.2813L80.4758 70.0176" stroke="#EE2922" stroke-width="4" stroke-linecap="round" stroke-linejoin="round"/>
</svg>
