<svg width="82" height="107" viewBox="0 0 82 107" fill="none" xmlns="http://www.w3.org/2000/svg">
<path d="M31.5138 26.9854C31.5138 27.4785 31.3179 27.9514 30.9692 28.3001C30.6205 28.6488 30.1476 28.8447 29.6545 28.8447H12.3251C11.832 28.8447 11.359 28.6488 11.0103 28.3001C10.6616 27.9514 10.4657 27.4785 10.4657 26.9854C10.4657 26.4922 10.6616 26.0193 11.0103 25.6706C11.359 25.3219 11.832 25.126 12.3251 25.126H29.6545C30.1476 25.126 30.6205 25.3219 30.9692 25.6706C31.3179 26.0193 31.5138 26.4922 31.5138 26.9854Z" fill="#EE2922"/>
<path d="M55.0907 24.9586L47.5045 31.1875C47.168 31.4613 46.7482 31.6122 46.3145 31.6152C45.8672 31.6192 45.4352 31.453 45.1059 31.1503L39.9368 26.6506C39.5647 26.3275 39.3361 25.8699 39.3012 25.3783C39.2664 24.8867 39.4281 24.4013 39.7509 24.0289C40.0775 23.6561 40.5383 23.4273 41.0328 23.3925C41.5273 23.3577 42.0155 23.5196 42.3912 23.843L46.3517 27.32L52.7479 22.0766C52.9353 21.9214 53.1517 21.8049 53.3844 21.7339C53.6172 21.6629 53.8617 21.6388 54.1038 21.6631C54.346 21.6873 54.5809 21.7593 54.795 21.875C55.0091 21.9906 55.1981 22.1476 55.351 22.3369C55.5065 22.5259 55.6232 22.7438 55.6943 22.978C55.7654 23.2123 55.7895 23.4582 55.7653 23.7018C55.7411 23.9454 55.6691 24.1818 55.5533 24.3975C55.4376 24.6131 55.2804 24.8038 55.0907 24.9586Z" fill="#EE2922"/>
<path d="M31.5138 44.3147C31.5138 44.8078 31.3179 45.2808 30.9692 45.6295C30.6205 45.9782 30.1476 46.1741 29.6545 46.1741H12.3251C11.832 46.1741 11.359 45.9782 11.0103 45.6295C10.6616 45.2808 10.4657 44.8078 10.4657 44.3147C10.4657 43.8216 10.6616 43.3486 11.0103 42.9999C11.359 42.6512 11.832 42.4553 12.3251 42.4553H29.6545C30.1476 42.4553 30.6205 42.6512 30.9692 42.9999C31.3179 43.3486 31.5138 43.8216 31.5138 44.3147Z" fill="#EE2922"/>
<path d="M55.0907 42.288L47.5045 48.5169C47.1724 48.7984 46.7497 48.9503 46.3145 48.9445C45.8672 48.9485 45.4352 48.7824 45.1059 48.4797L39.9368 43.98C39.5647 43.6569 39.3361 43.1992 39.3012 42.7076C39.2664 42.216 39.4281 41.7307 39.7509 41.3583C40.0775 40.9854 40.5383 40.7567 41.0328 40.7219C41.5273 40.687 42.0155 40.8489 42.3912 41.1723L46.3517 44.6494L52.7479 39.4059C52.9353 39.2507 53.1517 39.1342 53.3844 39.0633C53.6172 38.9923 53.8617 38.9682 54.1038 38.9924C54.346 39.0166 54.5809 39.0886 54.795 39.2043C55.0091 39.32 55.1981 39.477 55.351 39.6662C55.5065 39.8553 55.6232 40.0732 55.6943 40.3074C55.7654 40.5416 55.7895 40.7876 55.7653 41.0312C55.7411 41.2747 55.6691 41.5112 55.5533 41.7268C55.4376 41.9425 55.2804 42.1332 55.0907 42.288Z" fill="#EE2922"/>
<path d="M31.5138 61.644C31.5138 62.1372 31.3179 62.6101 30.9692 62.9588C30.6205 63.3075 30.1476 63.5034 29.6545 63.5034H12.3251C11.832 63.5034 11.359 63.3075 11.0103 62.9588C10.6616 62.6101 10.4657 62.1372 10.4657 61.644C10.4657 61.1509 10.6616 60.678 11.0103 60.3293C11.359 59.9806 11.832 59.7847 12.3251 59.7847H29.6545C30.1476 59.7847 30.6205 59.9806 30.9692 60.3293C31.3179 60.678 31.5138 61.1509 31.5138 61.644Z" fill="#EE2922"/>
<path d="M55.0907 59.6174L47.5045 65.8649C47.1663 66.1333 46.7463 66.2777 46.3145 66.2739C45.8709 66.2761 45.4416 66.1176 45.1059 65.8277L39.9368 61.3094C39.5647 60.9863 39.3361 60.5286 39.3012 60.037C39.2664 59.5454 39.4281 59.0601 39.7509 58.6877C40.0799 58.317 40.542 58.0915 41.0366 58.0601C41.5311 58.0288 42.018 58.1942 42.3912 58.5203L46.3517 61.9788L52.7479 56.7353C53.1326 56.4532 53.6111 56.3297 54.0844 56.3905C54.5576 56.4512 54.9894 56.6916 55.2903 57.0618C55.5913 57.4321 55.7384 57.9038 55.7013 58.3795C55.6641 58.8552 55.4455 59.2983 55.0907 59.6174Z" fill="#EE2922"/>
<path d="M31.5138 78.9735C31.5138 79.4666 31.3179 79.9396 30.9692 80.2883C30.6205 80.637 30.1476 80.8329 29.6545 80.8329H12.3251C11.832 80.8329 11.359 80.637 11.0103 80.2883C10.6616 79.9396 10.4657 79.4666 10.4657 78.9735C10.4657 78.4804 10.6616 78.0074 11.0103 77.6587C11.359 77.31 11.832 77.1141 12.3251 77.1141H29.6545C30.1476 77.1141 30.6205 77.31 30.9692 77.6587C31.3179 78.0074 31.5138 78.4804 31.5138 78.9735Z" fill="#EE2922"/>
<path d="M66.1726 65.5116V12.4636C66.1296 10.6352 65.3639 8.89834 64.0431 7.6333C62.7223 6.36826 60.9541 5.67814 59.1255 5.71406H47.114V4.22656C47.111 3.24119 46.7183 2.29702 46.0215 1.60026C45.3248 0.903496 44.3806 0.510755 43.3952 0.507812H22.8492C21.8638 0.510755 20.9196 0.903496 20.2228 1.60026C19.5261 2.29702 19.1333 3.24119 19.1304 4.22656V5.71406H7.11884C5.28838 5.67759 3.51786 6.36696 2.194 7.6316C0.870135 8.89624 0.100509 10.6334 0.0532227 12.4636V91.0594C0.0961584 92.8927 0.863816 94.6343 2.1881 95.9028C3.51239 97.1713 5.28538 97.8634 7.11884 97.8275H43.3023C45.2518 100.522 47.8159 102.713 50.7819 104.219C53.7478 105.724 57.03 106.5 60.356 106.483C63.682 106.466 66.9559 105.655 69.9061 104.119C72.8562 102.583 75.3974 100.366 77.3188 97.6506C79.2402 94.9356 80.4864 91.8016 80.9538 88.5085C81.4214 85.2155 81.0967 81.8584 80.0069 78.716C78.917 75.5735 77.0934 72.7363 74.6874 70.4399C72.2814 68.1434 69.3624 66.4539 66.1726 65.5116ZM22.8492 4.22656H43.3952V10.9017H22.8492V4.22656ZM7.11884 94.1087C6.27448 94.1336 5.45347 93.8295 4.82905 93.2606C4.20462 92.6916 3.82561 91.9024 3.77197 91.0594V12.4636C3.82976 11.6237 4.21064 10.8389 4.83467 10.2738C5.4587 9.70867 6.27736 9.40727 7.11884 9.43281H19.1304V10.9017C19.1304 11.888 19.5222 12.8339 20.2196 13.5313C20.917 14.2287 21.8629 14.6205 22.8492 14.6205H43.3952C44.3815 14.6205 45.3274 14.2287 46.0248 13.5313C46.7222 12.8339 47.114 11.888 47.114 10.9017V9.43281H59.1255C59.9651 9.40749 60.7817 9.70949 61.4027 10.275C62.0237 10.8405 62.4007 11.6253 62.4538 12.4636V64.7678C61.7128 64.6863 60.9681 64.6429 60.2226 64.6377C56.731 64.6339 53.2942 65.5052 50.226 67.1719C47.1579 68.8385 44.5564 71.2474 42.659 74.1785C40.7617 77.1096 39.6291 80.4694 39.3647 83.9509C39.1003 87.4324 39.7125 90.9248 41.1454 94.1087H7.11884ZM60.2226 102.773C56.819 102.772 53.4925 101.761 50.6636 99.8681C47.8347 97.9757 45.6305 95.2869 44.3297 92.1417C43.029 88.9966 42.69 85.5364 43.3558 82.1986C44.0216 78.8608 45.6622 75.7954 48.0702 73.3901C50.4781 70.9847 53.5453 69.3474 56.8838 68.6852C60.2223 68.0231 63.6821 68.3657 66.8259 69.6699C69.9696 70.9741 72.656 73.1812 74.5454 76.0121C76.4348 78.8431 77.4422 82.1707 77.4404 85.5742C77.435 90.1373 75.6186 94.5116 72.3903 97.7365C69.162 100.961 64.7856 102.773 60.2226 102.773Z" fill="#EE2922"/>
<path d="M73.1825 80.6655C73.1639 80.4609 73.1267 80.275 73.0895 80.0705C72.8342 78.54 72.0434 77.1501 70.8582 76.1488C69.6729 75.1475 68.1704 74.6 66.6189 74.6039H66.5817C64.1918 74.6576 61.9145 75.6298 60.2226 77.3186C58.5348 75.6238 56.255 74.6505 53.8635 74.6039H53.845C53.2395 74.609 52.6381 74.703 52.06 74.8828C51.9584 74.8966 51.8586 74.9215 51.7625 74.9572C50.143 75.4977 48.8007 76.6529 48.0251 78.1739C48.0065 78.2297 47.9879 78.2669 47.9693 78.3227C47.685 78.8806 47.4785 79.475 47.3557 80.0891C47.3185 80.275 47.3 80.4609 47.2628 80.6655C46.0542 89.7764 55.3882 96.6189 58.2145 98.4597L59.1628 99.1105C59.4673 99.3421 59.84 99.4663 60.2226 99.4637C60.611 99.4666 60.9896 99.3425 61.3011 99.1105L62.175 98.4969C65.057 96.6189 74.3911 89.7764 73.1825 80.6655ZM60.2226 95.3359C55.2581 92.0634 50.2192 86.6526 50.9629 81.1489L51.0187 80.7584C51.1158 80.0794 51.4556 79.4585 51.9752 79.0107C52.4948 78.5629 53.159 78.3184 53.845 78.3227C54.8192 78.3611 55.7668 78.6522 56.5948 79.1672C57.4227 79.6822 58.1026 80.4035 58.5678 81.2605C58.7396 81.5457 58.9823 81.7818 59.2722 81.9456C59.5622 82.1094 59.8896 82.1955 60.2226 82.1955C60.5556 82.1955 60.883 82.1094 61.173 81.9456C61.4629 81.7818 61.7056 81.5457 61.8775 81.2605C62.3445 80.4051 63.0248 79.685 63.8524 79.1702C64.6799 78.6555 65.6265 78.3635 66.6003 78.3227C67.2843 78.3147 67.9479 78.5554 68.4678 79C68.9876 79.4446 69.3283 80.0629 69.4265 80.7398L69.5009 81.1489C70.2261 86.6341 65.2429 92.0262 60.2226 95.3359Z" fill="#EE2922"/>
</svg>
