<svg width="96" height="106" viewBox="0 0 96 106" fill="none" xmlns="http://www.w3.org/2000/svg">
<path d="M92.4375 95.375V65.3594C92.4359 63.9551 91.8773 62.6087 90.8843 61.6157C89.8913 60.6227 88.545 60.0641 87.1406 60.0625H85.375V20.9158C85.3769 20.22 85.2408 19.5306 84.9745 18.8877C84.7082 18.2448 84.317 17.6611 83.8236 17.1704L68.236 1.58277C67.7453 1.08936 67.1616 0.698174 66.5187 0.431859C65.8758 0.165545 65.1864 0.0293882 64.4905 0.0312692H5.92188C4.51755 0.0328756 3.1712 0.591453 2.17819 1.58446C1.18518 2.57747 0.626606 3.92382 0.625 5.32814V100.672C0.626606 102.076 1.18518 103.423 2.17819 104.416C3.1712 105.409 4.51755 105.967 5.92188 105.969H90.6719C92.0762 105.967 93.4226 105.409 94.4156 104.416C95.4086 103.423 95.9672 102.076 95.9688 100.672V95.375H92.4375ZM87.1406 63.5938C87.6087 63.5943 88.0575 63.7805 88.3885 64.1115C88.7195 64.4425 88.9057 64.8913 88.9062 65.3594V95.375H50.0625V65.3594C50.063 64.8913 50.2492 64.4425 50.5802 64.1115C50.9112 63.7805 51.36 63.5943 51.8281 63.5938H87.1406ZM67.7188 6.05955L79.3467 17.6875H69.4844C69.0163 17.687 68.5675 17.5008 68.2365 17.1698C67.9055 16.8388 67.7193 16.39 67.7188 15.9219V6.05955ZM12.9844 102.438H5.92188C5.45377 102.437 5.00498 102.251 4.67398 101.92C4.34298 101.589 4.15679 101.14 4.15625 100.672V5.32814C4.15679 4.86004 4.34298 4.41125 4.67398 4.08025C5.00498 3.74925 5.45377 3.56305 5.92188 3.56252H64.1875V15.9219C64.1891 17.3262 64.7477 18.6726 65.7407 19.6656C66.7337 20.6586 68.08 21.2172 69.4844 21.2188H81.8438V60.0625H51.8281C50.8361 60.0634 49.8642 60.3426 49.0229 60.8684C48.1816 61.3941 47.5047 62.1453 47.069 63.0366L34.1719 52.4844L12.9844 69.8196V102.438ZM25.3438 102.438H16.5156V71.493L34.1719 57.0469L46.5312 67.159V95.375H43V77.7188H25.3438V102.438ZM28.875 102.438V81.25H39.4688V100.672C39.4685 101.273 39.5712 101.871 39.7725 102.438H28.875ZM92.4375 100.672C92.437 101.14 92.2508 101.589 91.9198 101.92C91.5888 102.251 91.14 102.437 90.6719 102.438H44.7656C44.2975 102.437 43.8487 102.251 43.5177 101.92C43.1867 101.589 43.0005 101.14 43 100.672V98.9063H92.4375V100.672Z" fill="#EE2922"/>
<path d="M69.4844 91.8438C71.9288 91.8438 74.3184 91.1189 76.3509 89.7608C78.3834 88.4028 79.9675 86.4725 80.9029 84.2141C81.8384 81.9557 82.0832 79.4707 81.6063 77.0732C81.1294 74.6757 79.9523 72.4735 78.2238 70.745C76.4953 69.0165 74.2931 67.8394 71.8956 67.3625C69.4981 66.8856 67.013 67.1304 64.7546 68.0658C62.4963 69.0013 60.566 70.5854 59.2079 72.6179C57.8499 74.6504 57.125 77.0399 57.125 79.4844C57.1287 82.7612 58.432 85.9027 60.7491 88.2197C63.0661 90.5367 66.2076 91.8401 69.4844 91.8438ZM69.4844 70.6563C71.2304 70.6563 72.9372 71.174 74.389 72.1441C75.8408 73.1141 76.9723 74.4929 77.6405 76.106C78.3087 77.7191 78.4835 79.4942 78.1429 81.2067C77.8022 82.9192 76.9614 84.4922 75.7268 85.7268C74.4922 86.9614 72.9191 87.8022 71.2067 88.1429C69.4942 88.4835 67.7191 88.3087 66.106 87.6405C64.4929 86.9723 63.1141 85.8408 62.1441 84.389C61.174 82.9372 60.6562 81.2304 60.6562 79.4844C60.6589 77.1438 61.5899 74.8999 63.2449 73.2449C64.8999 71.5899 67.1438 70.6589 69.4844 70.6563Z" fill="#EE2922"/>
<path d="M71.25 80.2156V74.1875H67.7188V78.7532L64.7046 81.7671L67.2016 84.2641L71.25 80.2156Z" fill="#EE2922"/>
<path d="M58.8906 8.85938H27.1094V12.3906H58.8906V8.85938Z" fill="#EE2922"/>
<path d="M14.75 28.2812H9.45312V31.8125H14.75V28.2812Z" fill="#EE2922"/>
<path d="M14.75 38.875H9.45312V42.4062H14.75V38.875Z" fill="#EE2922"/>
<path d="M14.75 49.4688H9.45312V53H14.75V49.4688Z" fill="#EE2922"/>
<path d="M60.6562 17.6875H18.2812V21.2188H60.6562V17.6875Z" fill="#EE2922"/>
<path d="M76.5469 28.2812H18.2812V31.8125H76.5469V28.2812Z" fill="#EE2922"/>
<path d="M76.5469 38.875H18.2812V42.4062H76.5469V38.875Z" fill="#EE2922"/>
<path d="M28.875 49.4688H18.2812V53H28.875V49.4688Z" fill="#EE2922"/>
<path d="M76.5469 49.4688H39.4688V53H76.5469V49.4688Z" fill="#EE2922"/>
<path d="M14.75 17.6875H9.45312V21.2188H14.75V17.6875Z" fill="#EE2922"/>
</svg>
