<svg width="101" height="101" viewBox="0 0 101 101" fill="none" xmlns="http://www.w3.org/2000/svg">
<g clip-path="url(#clip0_1017_439)">
<path d="M49.0312 100.5H8.21875C6.17225 100.498 4.21015 99.684 2.76305 98.2369C1.31596 96.7898 0.502068 94.8278 0.5 92.7812L0.5 8.21875C0.502068 6.17225 1.31596 4.21015 2.76305 2.76305C4.21015 1.31596 6.17225 0.502068 8.21875 0.5L49.0312 0.5C51.0778 0.502068 53.0399 1.31596 54.4869 2.76305C55.934 4.21015 56.7479 6.17225 56.75 8.21875V92.7812C56.7479 94.8278 55.934 96.7898 54.4869 98.2369C53.0399 99.684 51.0778 100.498 49.0312 100.5ZM8.21875 3.625C7.00105 3.62707 5.83381 4.11171 4.97276 4.97276C4.11171 5.83381 3.62707 7.00105 3.625 8.21875V92.7812C3.62707 93.999 4.11171 95.1662 4.97276 96.0272C5.83381 96.8883 7.00105 97.3729 8.21875 97.375H49.0312C50.249 97.3729 51.4162 96.8883 52.2772 96.0272C53.1383 95.1662 53.6229 93.999 53.625 92.7812V8.21875C53.6229 7.00105 53.1383 5.83381 52.2772 4.97276C51.4162 4.11171 50.249 3.62707 49.0312 3.625H8.21875Z" fill="#EE2922"/>
<path d="M18.0781 26.2813C16.6102 26.2813 15.1753 25.846 13.9548 25.0304C12.7342 24.2149 11.783 23.0558 11.2212 21.6996C10.6595 20.3434 10.5125 18.8511 10.7989 17.4114C11.0852 15.9717 11.7921 14.6493 12.8301 13.6113C13.868 12.5734 15.1905 11.8665 16.6302 11.5801C18.0699 11.2937 19.5622 11.4407 20.9184 12.0025C22.2745 12.5642 23.4337 13.5155 24.2492 14.736C25.0647 15.9565 25.5 17.3915 25.5 18.8594C25.4979 20.8271 24.7153 22.7137 23.3239 24.1052C21.9325 25.4966 20.0459 26.2792 18.0781 26.2813ZM18.0781 14.5625C17.2283 14.5625 16.3975 14.8145 15.6909 15.2867C14.9843 15.7588 14.4336 16.4299 14.1083 17.215C13.7831 18.0002 13.698 18.8641 13.8638 19.6977C14.0296 20.5312 14.4389 21.2968 15.0398 21.8977C15.6407 22.4987 16.4063 22.9079 17.2399 23.0737C18.0734 23.2395 18.9373 23.1544 19.7225 22.8292C20.5076 22.504 21.1787 21.9532 21.6508 21.2466C22.123 20.54 22.375 19.7092 22.375 18.8594C22.3729 17.7204 21.9196 16.6287 21.1142 15.8233C20.3088 15.0179 19.2171 14.5646 18.0781 14.5625Z" fill="#EE2922"/>
<path d="M39.1719 26.2813C37.704 26.2813 36.269 25.846 35.0485 25.0304C33.828 24.2149 32.8767 23.0558 32.315 21.6996C31.7532 20.3434 31.6062 18.8511 31.8926 17.4114C32.179 15.9717 32.8859 14.6493 33.9238 13.6113C34.9618 12.5734 36.2842 11.8665 37.7239 11.5801C39.1636 11.2937 40.6559 11.4407 42.0121 12.0025C43.3683 12.5642 44.5274 13.5155 45.3429 14.736C46.1585 15.9565 46.5938 17.3915 46.5938 18.8594C46.5917 20.8271 45.8091 22.7137 44.4177 24.1052C43.0262 25.4966 41.1396 26.2792 39.1719 26.2813ZM39.1719 14.5625C38.322 14.5625 37.4913 14.8145 36.7847 15.2867C36.078 15.7588 35.5273 16.4299 35.2021 17.215C34.8769 18.0002 34.7918 18.8641 34.9576 19.6977C35.1234 20.5312 35.5326 21.2968 36.1335 21.8977C36.7345 22.4987 37.5001 22.9079 38.3336 23.0737C39.1671 23.2395 40.0311 23.1544 40.8162 22.8292C41.6014 22.504 42.2725 21.9532 42.7446 21.2466C43.2167 20.54 43.4688 19.7092 43.4688 18.8594C43.4667 17.7204 43.0133 16.6287 42.2079 15.8233C41.4026 15.0179 40.3108 14.5646 39.1719 14.5625Z" fill="#EE2922"/>
<path d="M18.0781 47.375C16.6102 47.375 15.1753 46.9397 13.9548 46.1242C12.7342 45.3087 11.783 44.1495 11.2212 42.7934C10.6595 41.4372 10.5125 39.9449 10.7989 38.5052C11.0852 37.0655 11.7921 35.743 12.8301 34.7051C13.868 33.6671 15.1905 32.9602 16.6302 32.6739C18.0699 32.3875 19.5622 32.5345 20.9184 33.0962C22.2745 33.658 23.4337 34.6092 24.2492 35.8298C25.0647 37.0503 25.5 38.4852 25.5 39.9531C25.4979 41.9209 24.7153 43.8075 23.3239 45.1989C21.9325 46.5903 20.0459 47.3729 18.0781 47.375ZM18.0781 35.6563C17.2283 35.6563 16.3975 35.9083 15.6909 36.3804C14.9843 36.8526 14.4336 37.5236 14.1083 38.3088C13.7831 39.0939 13.698 39.9579 13.8638 40.7914C14.0296 41.6249 14.4389 42.3905 15.0398 42.9915C15.6407 43.5924 16.4063 44.0016 17.2399 44.1674C18.0734 44.3332 18.9373 44.2481 19.7225 43.9229C20.5076 43.5977 21.1787 43.047 21.6508 42.3403C22.123 41.6337 22.375 40.803 22.375 39.9531C22.3729 38.8142 21.9196 37.7224 21.1142 36.9171C20.3088 36.1117 19.2171 35.6583 18.0781 35.6563Z" fill="#EE2922"/>
<path d="M39.1719 47.375C37.704 47.375 36.269 46.9397 35.0485 46.1242C33.828 45.3087 32.8767 44.1495 32.315 42.7934C31.7532 41.4372 31.6062 39.9449 31.8926 38.5052C32.179 37.0655 32.8859 35.743 33.9238 34.7051C34.9618 33.6671 36.2842 32.9602 37.7239 32.6739C39.1636 32.3875 40.6559 32.5345 42.0121 33.0962C43.3683 33.658 44.5274 34.6092 45.3429 35.8298C46.1585 37.0503 46.5938 38.4852 46.5938 39.9531C46.5917 41.9209 45.8091 43.8075 44.4177 45.1989C43.0262 46.5903 41.1396 47.3729 39.1719 47.375ZM39.1719 35.6563C38.322 35.6563 37.4913 35.9083 36.7847 36.3804C36.078 36.8526 35.5273 37.5236 35.2021 38.3088C34.8769 39.0939 34.7918 39.9579 34.9576 40.7914C35.1234 41.6249 35.5326 42.3905 36.1335 42.9915C36.7345 43.5924 37.5001 44.0016 38.3336 44.1674C39.1671 44.3332 40.0311 44.2481 40.8162 43.9229C41.6014 43.5977 42.2725 43.047 42.7446 42.3403C43.2167 41.6337 43.4688 40.803 43.4688 39.9531C43.4667 38.8142 43.0133 37.7224 42.2079 36.9171C41.4026 36.1117 40.3108 35.6583 39.1719 35.6563Z" fill="#EE2922"/>
<path d="M18.0781 68.4688C16.6102 68.4688 15.1753 68.0335 13.9548 67.2179C12.7342 66.4024 11.783 65.2433 11.2212 63.8871C10.6595 62.5309 10.5125 61.0386 10.7989 59.5989C11.0852 58.1592 11.7921 56.8368 12.8301 55.7988C13.868 54.7609 15.1905 54.054 16.6302 53.7676C18.0699 53.4812 19.5622 53.6282 20.9184 54.19C22.2745 54.7517 23.4337 55.703 24.2492 56.9235C25.0647 58.144 25.5 59.579 25.5 61.0469C25.4979 63.0146 24.7153 64.9012 23.3239 66.2927C21.9325 67.6841 20.0459 68.4667 18.0781 68.4688ZM18.0781 56.75C17.2283 56.75 16.3975 57.002 15.6909 57.4742C14.9843 57.9463 14.4336 58.6174 14.1083 59.4025C13.7831 60.1877 13.698 61.0516 13.8638 61.8852C14.0296 62.7187 14.4389 63.4843 15.0398 64.0852C15.6407 64.6862 16.4063 65.0954 17.2399 65.2612C18.0734 65.427 18.9373 65.3419 19.7225 65.0167C20.5076 64.6915 21.1787 64.1407 21.6508 63.4341C22.123 62.7275 22.375 61.8967 22.375 61.0469C22.3729 59.9079 21.9196 58.8162 21.1142 58.0108C20.3088 57.2054 19.2171 56.7521 18.0781 56.75Z" fill="#EE2922"/>
<path d="M39.1719 68.4688C37.704 68.4688 36.269 68.0335 35.0485 67.2179C33.828 66.4024 32.8767 65.2433 32.315 63.8871C31.7532 62.5309 31.6062 61.0386 31.8926 59.5989C32.179 58.1592 32.8859 56.8368 33.9238 55.7988C34.9618 54.7609 36.2842 54.054 37.7239 53.7676C39.1636 53.4812 40.6559 53.6282 42.0121 54.19C43.3683 54.7517 44.5274 55.703 45.3429 56.9235C46.1585 58.144 46.5938 59.579 46.5938 61.0469C46.5917 63.0146 45.8091 64.9012 44.4177 66.2927C43.0262 67.6841 41.1396 68.4667 39.1719 68.4688ZM39.1719 56.75C38.322 56.75 37.4913 57.002 36.7847 57.4742C36.078 57.9463 35.5273 58.6174 35.2021 59.4025C34.8769 60.1877 34.7918 61.0516 34.9576 61.8852C35.1234 62.7187 35.5326 63.4843 36.1335 64.0852C36.7345 64.6862 37.5001 65.0954 38.3336 65.2612C39.1671 65.427 40.0311 65.3419 40.8162 65.0167C41.6014 64.6915 42.2725 64.1407 42.7446 63.4341C43.2167 62.7275 43.4688 61.8967 43.4688 61.0469C43.4667 59.9079 43.0133 58.8162 42.2079 58.0108C41.4026 57.2054 40.3108 56.7521 39.1719 56.75Z" fill="#EE2922"/>
<path d="M18.0781 89.5625C16.6102 89.5625 15.1753 89.1272 13.9548 88.3117C12.7342 87.4962 11.783 86.337 11.2212 84.9809C10.6595 83.6247 10.5125 82.1324 10.7989 80.6927C11.0852 79.253 11.7921 77.9305 12.8301 76.8926C13.868 75.8546 15.1905 75.1477 16.6302 74.8614C18.0699 74.575 19.5622 74.722 20.9184 75.2837C22.2745 75.8455 23.4337 76.7967 24.2492 78.0173C25.0647 79.2378 25.5 80.6727 25.5 82.1406C25.4979 84.1084 24.7153 85.995 23.3239 87.3864C21.9325 88.7778 20.0459 89.5604 18.0781 89.5625ZM18.0781 77.8438C17.2283 77.8438 16.3975 78.0958 15.6909 78.5679C14.9843 79.0401 14.4336 79.7111 14.1083 80.4963C13.7831 81.2814 13.698 82.1454 13.8638 82.9789C14.0296 83.8124 14.4389 84.578 15.0398 85.179C15.6407 85.7799 16.4063 86.1891 17.2399 86.3549C18.0734 86.5207 18.9373 86.4356 19.7225 86.1104C20.5076 85.7852 21.1787 85.2345 21.6508 84.5278C22.123 83.8212 22.375 82.9905 22.375 82.1406C22.3729 81.0017 21.9196 79.9099 21.1142 79.1046C20.3088 78.2992 19.2171 77.8458 18.0781 77.8438Z" fill="#EE2922"/>
<path d="M39.1719 89.5625C37.704 89.5625 36.269 89.1272 35.0485 88.3117C33.828 87.4962 32.8767 86.337 32.315 84.9809C31.7532 83.6247 31.6062 82.1324 31.8926 80.6927C32.179 79.253 32.8859 77.9305 33.9238 76.8926C34.9618 75.8546 36.2842 75.1477 37.7239 74.8614C39.1636 74.575 40.6559 74.722 42.0121 75.2837C43.3683 75.8455 44.5274 76.7967 45.3429 78.0173C46.1585 79.2378 46.5938 80.6727 46.5938 82.1406C46.5917 84.1084 45.8091 85.995 44.4177 87.3864C43.0262 88.7778 41.1396 89.5604 39.1719 89.5625ZM39.1719 77.8438C38.322 77.8438 37.4913 78.0958 36.7847 78.5679C36.078 79.0401 35.5273 79.7111 35.2021 80.4963C34.8769 81.2814 34.7918 82.1454 34.9576 82.9789C35.1234 83.8124 35.5326 84.578 36.1335 85.179C36.7345 85.7799 37.5001 86.1891 38.3336 86.3549C39.1671 86.5207 40.0311 86.4356 40.8162 86.1104C41.6014 85.7852 42.2725 85.2345 42.7446 84.5278C43.2167 83.8212 43.4688 82.9905 43.4688 82.1406C43.4667 81.0017 43.0133 79.9099 42.2079 79.1046C41.4026 78.2992 40.3108 77.8458 39.1719 77.8438Z" fill="#EE2922"/>
<path d="M94.1719 44.8594C92.7288 43.5999 91.552 42.0646 90.7109 40.3438H91.9063C92.3207 40.3438 92.7181 40.1791 93.0111 39.8861C93.3041 39.5931 93.4688 39.1957 93.4688 38.7812V26.2812C93.4688 25.8668 93.3041 25.4694 93.0111 25.1764C92.7181 24.8834 92.3207 24.7188 91.9063 24.7188H62.2187C61.8043 24.7188 61.4069 24.8834 61.1139 25.1764C60.8209 25.4694 60.6562 25.8668 60.6562 26.2812V38.7812C60.6562 39.1957 60.8209 39.5931 61.1139 39.8861C61.4069 40.1791 61.8043 40.3438 62.2187 40.3438H63.4141C62.573 42.0646 61.3962 43.5999 59.9531 44.8594C57.9472 46.7754 56.3518 49.0793 55.264 51.6311C54.1761 54.1828 53.6185 56.9292 53.625 59.7031V98.9375C53.625 99.3519 53.7896 99.7493 54.0826 100.042C54.3757 100.335 54.7731 100.5 55.1875 100.5H98.9375C99.3519 100.5 99.7493 100.335 100.042 100.042C100.335 99.7493 100.5 99.3519 100.5 98.9375V59.7109C100.508 56.9357 99.9505 54.1878 98.8626 51.6347C97.7747 49.0815 96.1788 46.7763 94.1719 44.8594ZM63.7812 27.8438H90.3438V37.2188H63.7812V27.8438ZM97.375 97.375H56.75V59.7109C56.7434 57.3612 57.2144 55.0346 58.1344 52.8724C59.0543 50.7102 60.404 48.7575 62.1016 47.1328C64.6484 44.7266 66.1875 42.4453 66.7109 40.3438H87.4141C87.9375 42.4531 89.4766 44.7266 92.0234 47.1328C93.721 48.7575 95.0707 50.7102 95.9906 52.8724C96.9106 55.0346 97.3816 57.3612 97.375 59.7109V97.375Z" fill="#EE2922"/>
<path d="M86.4375 78.625H67.6875C65.6155 78.625 63.6284 79.4481 62.1632 80.9132C60.6981 82.3784 59.875 84.3655 59.875 86.4375C59.875 88.5095 60.6981 90.4966 62.1632 91.9618C63.6284 93.4269 65.6155 94.25 67.6875 94.25H86.4375C88.5095 94.25 90.4966 93.4269 91.9618 91.9618C93.4269 90.4966 94.25 88.5095 94.25 86.4375C94.25 84.3655 93.4269 82.3784 91.9618 80.9132C90.4966 79.4481 88.5095 78.625 86.4375 78.625ZM63 86.4375C63 85.1943 63.4939 84.002 64.3729 83.1229C65.252 82.2439 66.4443 81.75 67.6875 81.75H75.5V91.125H67.6875C66.4443 91.125 65.252 90.6311 64.3729 89.7521C63.4939 88.873 63 87.6807 63 86.4375ZM86.4375 91.125H78.625V81.75H86.4375C87.6807 81.75 88.873 82.2439 89.7521 83.1229C90.6311 84.002 91.125 85.1943 91.125 86.4375C91.125 87.6807 90.6311 88.873 89.7521 89.7521C88.873 90.6311 87.6807 91.125 86.4375 91.125Z" fill="#EE2922"/>
<path d="M68.8672 75.0937C69.8938 75.0956 70.9107 74.895 71.8598 74.5036C72.8089 74.1122 73.6716 73.5375 74.3984 72.8125L87.6797 59.5312C89.1425 58.0622 89.9619 56.0722 89.9575 53.999C89.9531 51.9259 89.1253 49.9394 87.6562 48.4765C86.1872 47.0137 84.1972 46.1944 82.124 46.1987C80.0509 46.2031 78.0644 47.0309 76.6016 48.5L63.3203 61.7812C62.228 62.8738 61.4842 64.2657 61.1829 65.781C60.8816 67.2962 61.0363 68.8668 61.6275 70.2941C62.2187 71.7215 63.2198 72.9415 64.5042 73.8C65.7887 74.6584 67.2988 75.1168 68.8437 75.1172L68.8672 75.0937ZM78.8125 50.7109C79.692 49.8313 80.885 49.3372 82.1289 49.3372C83.3728 49.3372 84.5657 49.8313 85.4453 50.7109C86.3249 51.5905 86.819 52.7834 86.819 54.0273C86.819 55.2712 86.3249 56.4642 85.4453 57.3437L79.9219 62.8672L73.289 56.2343L78.8125 50.7109ZM65.5312 63.9922L71.0547 58.4687L77.6875 65.1015L72.1641 70.625C71.2845 71.5045 70.0915 71.9987 68.8476 71.9987C67.6037 71.9987 66.4108 71.5045 65.5312 70.625C64.6517 69.7454 64.1575 68.5525 64.1575 67.3086C64.1575 66.0647 64.6517 64.8717 65.5312 63.9922Z" fill="#EE2922"/>
</g>
<defs>
<clipPath id="clip0_1017_439">
<rect width="100" height="100" fill="white" transform="translate(0.5 0.5)"/>
</clipPath>
</defs>
</svg>
