<svg width="1172" height="49" viewBox="0 0 1172 49" fill="none" xmlns="http://www.w3.org/2000/svg">
<path fill-rule="evenodd" clip-rule="evenodd" d="M589.709 12.1023C589.83 8.78434 590.94 7.19074 594.036 5.96028C594.379 8.05805 593.794 9.66169 592.281 10.8013C590.728 11.8603 590.526 12.1023 589.709 12.1023ZM583.961 2.48099C584.697 2.56155 585.736 3.20701 587.077 4.47787C588.075 5.63755 588.448 7.34207 588.227 9.5608C585.802 6.89125 583.569 7.21345 583.961 2.48099ZM582.478 1.43051e-05C582.478 6.01892 581.568 7.68593 587.398 10.4249C587.678 10.5562 587.908 10.6848 588.162 10.8361C588.226 10.8742 588.28 10.9252 588.279 11.011C588.267 12.1767 588.257 13.3649 588.257 14.5531C591.827 12.8991 593.985 11.4468 594.732 10.1962C595.811 8.13887 596.063 5.92014 595.488 3.53978C594.384 3.95469 593.239 4.25682 592.195 4.822C592.023 4.91523 591.855 5.01849 591.689 5.12862C591.212 5.44581 590.766 5.80816 590.305 6.14832C590.112 6.29068 589.914 6.43144 589.709 6.56561C589.401 3.01422 585.212 1.48454 582.478 1.43051e-05Z" fill="#2F9734"/>
<path fill-rule="evenodd" clip-rule="evenodd" d="M606.373 24.2673C610.113 15.7442 599.967 8.58198 593.324 14.2486C592.891 14.6178 592.571 14.9627 592.064 15.2368C589.072 16.8576 585.939 15.9608 583.258 14.0558C583.006 13.877 582.767 13.7014 582.501 13.5434C580.599 12.4128 578.757 12.1656 576.977 12.2086C575.129 12.2535 573.346 12.6341 571.629 13.925C566.634 17.6914 564.924 23.7624 566.656 32.0594C566.684 32.1925 566.716 32.319 566.756 32.449C569.556 41.547 573.631 46.7377 578.982 47.9415C580.544 48.3186 582.672 48.0492 585.284 47.1336C586.738 46.7026 587.416 46.4509 590.19 47.3666C594.822 49.225 599.447 48.4684 602.598 44.4281C605.884 39.1765 606.726 33.4763 603.952 30.0557C601.905 28.1436 599.237 27.6232 594.389 27.9466C594.954 24.3642 595.601 23.3483 596.247 23.1057C594.55 23.1328 592.425 22.8422 590.728 22.7075C590.674 24.7546 590.371 26.3302 590.317 28.3773C587.974 28.6466 584.912 28.9171 582.892 28.3245C582.699 29.1916 584.069 30.2976 586.621 30.9064C587.637 31.1485 589.004 30.9184 590.285 31.1641C590.42 35.0155 591.3 37.9999 592.377 39.1848C592.991 34.5491 593.452 31.3593 593.682 31.0183C593.683 31.0164 594.852 31.1195 595.059 31.1189C598.446 31.1126 599.604 31.3648 600.947 32.6769C602.255 33.9539 601.602 36.548 601.057 38.2037C599.398 43.2394 597.391 45.2477 593.768 44.3056C590.159 43.1475 587.412 42.8242 585.527 43.2552C581.162 44.436 578.267 44.3446 576.839 42.9808C576.678 42.8274 576.526 42.6613 576.369 42.5039C571.393 37.52 569.067 31.5555 569.331 24.6106C569.374 23.4937 569.496 22.6462 569.877 21.5986C571.731 16.5022 574.671 14.2399 578.647 14.6669C579.577 14.7667 580.277 15.0213 581.122 15.4022C582.561 16.0521 583.932 16.7647 585.271 17.5398C585.422 17.6278 585.563 17.6877 585.73 17.7456C587.419 18.3308 589.107 18.3443 590.796 17.8272C591.496 17.6132 591.915 17.3449 592.501 16.9276C595.775 14.5985 598.449 13.662 600.574 14.0193C601.028 14.0957 601.512 14.2224 601.941 14.3851C604.045 15.1809 606.264 17.4646 606.511 19.7247C606.538 19.9762 606.534 20.2242 606.519 20.4756C606.515 20.5487 606.51 20.6219 606.506 20.6953C606.435 21.8843 606.373 23.0757 606.373 24.2673Z" fill="#EE2922"/>
<path d="M640 29.4999L1171 29.4998" stroke="url(#paint0_linear_97_350)" stroke-linecap="round"/>
<path d="M532 29.9999L1 29.9998" stroke="url(#paint1_linear_97_350)" stroke-linecap="round"/>
<defs>
<linearGradient id="paint0_linear_97_350" x1="1162" y1="29.0025" x2="640" y2="29.002" gradientUnits="userSpaceOnUse">
<stop stop-color="#EE2922" stop-opacity="0"/>
<stop offset="1" stop-color="#EE2922" stop-opacity="0.87"/>
</linearGradient>
<linearGradient id="paint1_linear_97_350" x1="9.99997" y1="29.5025" x2="532" y2="29.9999" gradientUnits="userSpaceOnUse">
<stop stop-color="#EE2922" stop-opacity="0"/>
<stop offset="1" stop-color="#EE2922" stop-opacity="0.87"/>
</linearGradient>
</defs>
</svg>
