<svg width="33" height="37" viewBox="0 0 33 37" fill="none" xmlns="http://www.w3.org/2000/svg">
<g filter="url(#filter0_d_432_2761)">
<path fill-rule="evenodd" clip-rule="evenodd" d="M18.3605 9.48432C18.433 7.43244 19.0972 6.44692 20.9511 5.68598C21.1564 6.98329 20.8061 7.97501 19.9004 8.67977C18.9704 9.33471 18.8496 9.48432 18.3605 9.48432ZM14.9185 3.5343C15.3593 3.58411 15.9813 3.98329 16.7844 4.76922C17.3822 5.48639 17.6057 6.54051 17.4729 7.91262C16.0211 6.26171 14.6842 6.46096 14.9185 3.5343ZM14.0308 2C14.0308 5.72223 13.486 6.75316 16.9768 8.44703C17.1442 8.5282 17.282 8.60774 17.4342 8.70133C17.4727 8.72485 17.505 8.75637 17.5044 8.80945C17.4968 9.53038 17.4909 10.2652 17.4909 11C19.6286 9.97708 20.9209 9.07894 21.3676 8.30559C22.0138 7.03326 22.1648 5.66115 21.8205 4.18908C21.1595 4.44567 20.4737 4.63251 19.8489 4.98203C19.7459 5.03969 19.6453 5.10355 19.5459 5.17166C19.26 5.36781 18.9933 5.5919 18.7173 5.80226C18.6018 5.8903 18.4834 5.97735 18.3605 6.06032C18.1761 3.86406 15.6676 2.91806 14.0308 2Z" fill="#2F9734"/>
</g>
<g filter="url(#filter1_d_432_2761)">
<path fill-rule="evenodd" clip-rule="evenodd" d="M28.5115 16.3465C30.7825 11.1559 24.622 6.79416 20.5892 10.2451C20.3264 10.4699 20.1319 10.68 19.8245 10.847C18.0079 11.834 16.1057 11.2878 14.4777 10.1277C14.3251 10.0188 14.1795 9.91184 14.0183 9.81566C12.8633 9.12711 11.7454 8.97657 10.6645 9.00278C9.54227 9.03013 8.4599 9.26189 7.41759 10.0481C4.38489 12.3418 3.34672 16.039 4.39854 21.0919C4.41546 21.1729 4.43475 21.25 4.45905 21.3291C6.1587 26.8698 8.63289 30.0309 11.8816 30.764C12.83 30.9937 14.1218 30.8296 15.708 30.272C16.5909 30.0095 17.0022 29.8562 18.6864 30.4139C21.4988 31.5457 24.3065 31.0849 26.2197 28.6244C28.2147 25.4262 28.7257 21.9548 27.0415 19.8716C25.7988 18.7071 24.1788 18.3902 21.2356 18.5871C21.579 16.4055 21.9714 15.7868 22.3637 15.6391C21.3337 15.6555 20.0432 15.4786 19.0131 15.3966C18.9804 16.6433 18.7965 17.6028 18.7638 18.8495C17.3411 19.0135 15.4818 19.1782 14.2555 18.8173C14.1385 19.3453 14.9699 20.0189 16.5194 20.3897C17.1363 20.5371 17.9665 20.397 18.7441 20.5466C18.8259 22.8921 19.3603 24.7096 20.0144 25.4312C20.3869 22.6081 20.6667 20.6655 20.8063 20.4578C20.8071 20.4567 21.5171 20.5195 21.6425 20.5191C23.6989 20.5153 24.4017 20.6689 25.2176 21.4679C26.0113 22.2456 25.615 23.8254 25.2841 24.8338C24.2771 27.9005 23.0584 29.1235 20.8588 28.5497C18.6676 27.8445 16.9997 27.6476 15.8551 27.9101C13.2056 28.6292 11.4474 28.5735 10.5804 27.743C10.4829 27.6495 10.3907 27.5484 10.2953 27.4525C7.27404 24.4173 5.86206 20.785 6.02253 16.5555C6.04833 15.8754 6.1223 15.3593 6.35387 14.7212C7.47973 11.6175 9.26436 10.2398 11.6782 10.4999C12.2428 10.5607 12.6682 10.7157 13.1807 10.9476C14.0548 11.3435 14.8872 11.7774 15.6997 12.2495C15.7919 12.303 15.8771 12.3395 15.9784 12.3748C17.0038 12.7312 18.0292 12.7394 19.0546 12.4245C19.4792 12.2942 19.7337 12.1308 20.0896 11.8766C22.0771 10.4582 23.7007 9.88787 24.9907 10.1055C25.2663 10.152 25.5602 10.2292 25.8211 10.3282C27.0979 10.8129 28.4456 12.2036 28.5952 13.5801C28.6119 13.7332 28.6095 13.8842 28.6003 14.0373C28.5976 14.0819 28.595 14.1264 28.5923 14.1712C28.549 14.8952 28.5115 15.6208 28.5115 16.3465Z" fill="#EE2922"/>
</g>
<defs>
<filter id="filter0_d_432_2761" x="10" y="0" width="16" height="17" filterUnits="userSpaceOnUse" color-interpolation-filters="sRGB">
<feFlood flood-opacity="0" result="BackgroundImageFix"/>
<feColorMatrix in="SourceAlpha" type="matrix" values="0 0 0 0 0 0 0 0 0 0 0 0 0 0 0 0 0 0 127 0" result="hardAlpha"/>
<feOffset dy="2"/>
<feGaussianBlur stdDeviation="2"/>
<feComposite in2="hardAlpha" operator="out"/>
<feColorMatrix type="matrix" values="0 0 0 0 0.933333 0 0 0 0 0.160784 0 0 0 0 0.133333 0 0 0 0.15 0"/>
<feBlend mode="normal" in2="BackgroundImageFix" result="effect1_dropShadow_432_2761"/>
<feBlend mode="normal" in="SourceGraphic" in2="effect1_dropShadow_432_2761" result="shape"/>
</filter>
<filter id="filter1_d_432_2761" x="0" y="7" width="33" height="30" filterUnits="userSpaceOnUse" color-interpolation-filters="sRGB">
<feFlood flood-opacity="0" result="BackgroundImageFix"/>
<feColorMatrix in="SourceAlpha" type="matrix" values="0 0 0 0 0 0 0 0 0 0 0 0 0 0 0 0 0 0 127 0" result="hardAlpha"/>
<feOffset dy="2"/>
<feGaussianBlur stdDeviation="2"/>
<feComposite in2="hardAlpha" operator="out"/>
<feColorMatrix type="matrix" values="0 0 0 0 0.933333 0 0 0 0 0.160784 0 0 0 0 0.133333 0 0 0 0.15 0"/>
<feBlend mode="normal" in2="BackgroundImageFix" result="effect1_dropShadow_432_2761"/>
<feBlend mode="normal" in="SourceGraphic" in2="effect1_dropShadow_432_2761" result="shape"/>
</filter>
</defs>
</svg>
