<svg width="33" height="33" viewBox="0 0 33 33" fill="none" xmlns="http://www.w3.org/2000/svg">
    <path class="drawFirst" fill-rule="evenodd" clip-rule="evenodd"
        d="M15.032 9.56547C15.1087 7.4896 15.8121 6.49255 17.7752 5.72271C17.9926 7.03519 17.6217 8.03852 16.6626 8.75152C15.6779 9.41412 15.55 9.56547 15.032 9.56547ZM11.3873 3.54587C11.8541 3.59627 12.5127 4.00011 13.3631 4.79523C13.9961 5.52079 14.2327 6.58724 14.0921 7.9754C12.5549 6.30518 11.1392 6.50676 11.3873 3.54587ZM10.4473 1.99364C10.4473 5.7594 9.87036 6.80237 13.5668 8.51605C13.7441 8.59817 13.89 8.67864 14.0512 8.77333C14.0919 8.79712 14.1261 8.82901 14.1255 8.88271C14.1175 9.61207 14.1113 10.3555 14.1113 11.0989C16.3748 10.064 17.7433 9.15535 18.2163 8.37296C18.9005 7.08576 19.0604 5.6976 18.6959 4.20831C17.9959 4.4679 17.2697 4.65693 16.6081 5.01054C16.499 5.06887 16.3925 5.13348 16.2873 5.20238C15.9846 5.40083 15.7021 5.62754 15.4098 5.84036C15.2875 5.92942 15.1622 6.0175 15.032 6.10144C14.8368 3.87949 12.1805 2.92243 10.4473 1.99364Z"
        fill="none" stroke="#2F9734" stroke-width="0.5" />
    <path class="drawSecond" fill-rule="evenodd" clip-rule="evenodd"
        d="M25.5971 17.1766C27.9687 11.8441 21.5354 7.36302 17.324 10.9084C17.0495 11.1394 16.8464 11.3552 16.5254 11.5267C14.6283 12.5407 12.6419 11.9796 10.9417 10.7877C10.7824 10.6759 10.6304 10.566 10.462 10.4672C9.25592 9.75979 8.08843 9.60513 6.95968 9.63206C5.78774 9.66015 4.65743 9.89826 3.56896 10.7059C0.401937 13.0624 -0.682212 16.8607 0.416196 22.0518C0.433857 22.1351 0.454002 22.2142 0.47938 22.2955C2.25431 27.9878 4.83809 31.2353 8.2307 31.9885C9.22111 32.2244 10.5701 32.0559 12.2265 31.4831C13.1486 31.2134 13.5781 31.0559 15.3369 31.6288C18.2739 32.7915 21.2059 32.3182 23.2038 29.7904C25.2872 26.5047 25.8209 22.9383 24.062 20.7981C22.7643 19.6019 21.0726 19.2763 17.9989 19.4786C18.3576 17.2373 18.7674 16.6016 19.1771 16.4499C18.1014 16.4668 16.7538 16.285 15.6781 16.2007C15.6439 17.4815 15.4518 18.4673 15.4177 19.7481C13.932 19.9166 11.9904 20.0858 10.7097 19.715C10.5876 20.2575 11.4558 20.9495 13.0739 21.3304C13.7182 21.4819 14.5851 21.3379 15.3971 21.4916C15.4826 23.9013 16.0406 25.7685 16.7237 26.5099C17.1127 23.6095 17.4048 21.6138 17.5507 21.4004C17.5515 21.3993 18.293 21.4638 18.4239 21.4634C20.5714 21.4594 21.3053 21.6172 22.1573 22.4381C22.9862 23.2371 22.5724 24.8601 22.2268 25.896C21.1752 29.0467 19.9025 30.3031 17.6054 29.7137C15.3173 28.9891 13.5755 28.7869 12.3802 29.0565C9.6133 29.7953 7.77722 29.7381 6.8719 28.8848C6.77006 28.7889 6.67378 28.6849 6.57408 28.5864C3.41905 25.4682 1.94454 21.7365 2.11212 17.3914C2.13906 16.6926 2.2163 16.1624 2.45813 15.5069C3.63385 12.3183 5.49752 10.9029 8.01831 11.1701C8.6079 11.2326 9.0521 11.3918 9.58734 11.6301C10.5002 12.0368 11.3695 12.4826 12.2179 12.9675C12.3142 13.0226 12.4032 13.0601 12.5089 13.0963C13.5797 13.4624 14.6505 13.4709 15.7214 13.1473C16.1648 13.0135 16.4305 12.8456 16.8022 12.5845C18.8777 11.1273 20.5733 10.5414 21.9204 10.7649C22.2082 10.8127 22.5151 10.892 22.7876 10.9938C24.1209 11.4916 25.5283 12.9205 25.6846 14.3346C25.702 14.4919 25.6995 14.647 25.6899 14.8043C25.6871 14.8501 25.6844 14.8959 25.6815 14.9418C25.6363 15.6857 25.5971 16.4311 25.5971 17.1766Z"
        stroke="#EE2922" stroke-width="0.5" fill="none" />
</svg>