<svg width="185" height="42" viewBox="0 0 185 42" fill="none" xmlns="http://www.w3.org/2000/svg">
<path d="M47.4961 3.86634C47.445 6.01241 47.4109 12.2632 47.3939 17.7987C47.3768 23.3171 47.3087 30.7432 47.2406 34.2689C47.1554 40.0087 47.1554 40.707 47.3939 40.707C47.6834 40.707 47.7686 36.449 47.9559 12.127C48.0241 1.66919 48.007 3.05176e-05 47.8026 3.05176e-05C47.5983 3.05176e-05 47.5472 0.647255 47.4961 3.86634Z" fill="#1C0700"/>
<path d="M15.5095 2.67389C15.5095 3.96834 15.5947 5.29685 15.6798 5.65453C15.9353 6.55723 16.6336 7.13633 18.8308 8.27749L20.7895 9.28239V10.8494C20.7895 11.718 20.8406 12.4333 20.8917 12.4333C20.9598 12.4333 21.7092 12.0757 22.5609 11.6499C25.9332 9.92961 26.887 8.94174 27.2788 6.82975C27.4661 5.72266 27.4491 3.5255 27.2277 3.32111C27.1766 3.25298 26.4953 3.55956 25.7118 3.96834C24.9283 4.39414 23.7701 4.99027 23.157 5.33091L22.0329 5.92704L21.7603 4.95621C21.4027 3.66176 20.6873 3.01453 17.9792 1.54976C16.7699 0.885505 15.7139 0.340474 15.6458 0.340474C15.5606 0.340474 15.5095 1.39647 15.5095 2.67389ZM17.7748 2.65686C19.8527 3.72989 20.6192 4.87104 20.7554 7.17039C20.8065 7.91981 20.7725 8.51594 20.7214 8.51594C20.6533 8.51594 20.3978 8.27749 20.1593 8.00497C19.9209 7.71543 19.4099 7.32368 19.0182 7.1193C17.9451 6.5913 17.2298 5.82485 16.9573 4.87104C16.7188 4.07053 16.5996 2.21402 16.7869 2.21402C16.838 2.21402 17.2809 2.4184 17.7748 2.65686ZM26.0695 6.09736C26.0695 7.37478 25.4563 8.6522 24.5707 9.24832C23.9064 9.67413 22.2372 10.5598 22.0669 10.5598C22.0158 10.5598 21.9818 10.0659 21.9818 9.45271C21.9818 8.24342 22.2543 7.40884 22.7823 6.94898C23.157 6.60833 25.7289 5.1095 25.9332 5.1095C26.0184 5.1095 26.0695 5.55233 26.0695 6.09736Z" fill="#2F9734"/>
<path d="M57.8687 0.61311C57.8005 0.681238 57.7495 4.05362 57.7495 8.12432V15.4993H58.6862H59.623V12.8933C59.623 10.4918 59.6571 10.2533 60.0147 9.65722L60.4235 8.99296L61.9394 12.2461L63.4552 15.4993H64.4261C64.9881 15.4993 65.4139 15.4311 65.4139 15.3289C65.4139 15.2268 64.8519 14.0175 64.1706 12.6379C63.4723 11.2582 62.5866 9.4358 62.1949 8.58419L61.4625 7.03426L63.0805 4.07065C63.9832 2.43556 64.7667 0.970786 64.8349 0.800464C64.92 0.544981 64.8178 0.510917 63.9151 0.510917H62.8932L62.0756 2.07788C61.6158 2.94652 60.9004 4.34317 60.4746 5.17774L59.7082 6.69361L59.623 3.64484L59.5378 0.596078L58.7714 0.544981C58.3456 0.510917 57.9368 0.544981 57.8687 0.61311Z" fill="#200203"/>
<path d="M67.7132 0.715389C67.6792 0.834615 67.611 2.53784 67.5429 4.51357C67.4237 8.55021 67.2023 11.6841 66.9297 12.655C66.8105 13.0978 66.5891 13.4044 66.2485 13.5917C65.8056 13.8472 65.7545 13.9665 65.7545 14.767C65.7545 15.6186 65.7715 15.6697 66.1974 15.6697C66.8957 15.6697 67.7643 15.1757 68.139 14.5626C68.7011 13.6599 68.9736 11.9396 69.161 8.00518C69.2632 5.99538 69.3824 3.93448 69.4335 3.44054L69.5186 2.55487H70.7961H72.0564V9.02711V15.4994H72.9932H73.93V8.00518V0.511003H70.8642C68.5478 0.511003 67.7643 0.562099 67.7132 0.715389Z" fill="#200203"/>
<path d="M76.4849 8.00509V15.4993H77.3365H78.1881V8.00509V0.510917H77.3365H76.4849V8.00509Z" fill="#200203"/>
<path d="M80.7429 8.00509V15.4993H81.5945H82.4461V12.178V8.8567H84.2345H86.0229V12.178V15.4993H86.8745H87.7261V8.00509V0.510917H86.8745H86.0229V3.74704V6.98316H84.2345H82.4461V3.74704V0.510917H81.5945H80.7429V8.00509Z" fill="#200203"/>
<path d="M90.4513 8.00509V15.4993H91.3029H92.1545V8.00509V0.510917H91.3029H90.4513V8.00509Z" fill="#200203"/>
<path d="M94.6583 0.613062C94.5902 0.681191 94.5391 4.05357 94.5391 8.12427V15.4992H95.4758H96.4126V12.8933C96.4126 10.4917 96.4467 10.2533 96.8043 9.65717L97.1961 8.99291L98.729 12.2461L100.245 15.4992H101.233C102.442 15.4992 102.459 15.6866 100.841 12.4334C100.228 11.173 99.3762 9.43575 98.9845 8.58414L98.2521 7.03421L99.8701 4.0706C100.773 2.43551 101.556 0.970738 101.624 0.800417C101.727 0.527901 101.641 0.493836 100.671 0.544933L99.6147 0.59603L98.0647 3.62776L96.4978 6.67653L96.4126 3.62776L96.3274 0.59603L95.561 0.544933C95.1352 0.510869 94.7264 0.544933 94.6583 0.613062Z" fill="#200203"/>
<path d="M105.61 0.647174C105.61 0.715303 104.963 3.8833 104.162 7.68148C103.362 11.4626 102.663 14.7669 102.612 15.0224C102.51 15.4993 102.527 15.4993 103.447 15.4993H104.401L104.571 14.5966C104.673 14.1197 104.792 13.4213 104.86 13.0637L104.963 12.4335H106.632H108.301L108.591 13.9664L108.88 15.4993H109.817C110.737 15.4993 110.754 15.4993 110.651 15.0224C110.6 14.7669 109.902 11.4626 109.101 7.68148C108.301 3.8833 107.654 0.715303 107.654 0.647174C107.654 0.579045 107.194 0.510917 106.632 0.510917C106.07 0.510917 105.61 0.579045 105.61 0.647174ZM106.87 4.80303C106.938 5.39916 107.177 6.77877 107.415 7.9029C107.994 10.7473 108.045 10.5599 106.632 10.5599C105.797 10.5599 105.44 10.4918 105.44 10.3385C105.44 10.2363 105.678 8.92483 105.951 7.426C106.24 5.94419 106.461 4.51349 106.461 4.24097C106.461 3.33826 106.751 3.73001 106.87 4.80303Z" fill="#200203"/>
<path d="M29.0501 10.8495C28.3518 11.0028 27.6364 11.3264 26.1546 12.1951C23.5657 13.6939 21.4197 14.2219 19.5802 13.7961C19.0692 13.6939 17.6215 13.1148 16.3611 12.5187C15.1007 11.9396 13.4997 11.3094 12.8184 11.1561C10.2636 10.543 6.90824 11.2242 4.86437 12.7742C2.97379 14.2389 1.52606 16.93 1.04915 19.9447C0.776639 21.5969 0.827735 25.1907 1.13432 26.7065C1.93483 30.7091 4.14902 35.0523 6.68682 37.6582C7.9983 39.0038 8.98617 39.7021 10.6894 40.4856C12.4096 41.2861 13.8063 41.3713 16.7018 40.9114C20.6021 40.2812 20.4489 40.2812 23.2762 40.9455C26.1206 41.6268 27.5343 41.7119 29.2715 41.3031C30.9066 40.9114 32.0648 40.2982 33.1379 39.2082C34.2449 38.1011 34.9262 36.7726 35.88 33.9793C36.4421 32.3442 36.5273 31.9014 36.5102 30.5728C36.5102 28.6993 36.0844 27.473 35.0795 26.3318C33.6659 24.7138 31.9626 24.1517 28.5903 24.1517C27.381 24.1517 26.4101 24.0836 26.4101 24.0154C26.4101 23.9303 26.5634 23.1809 26.7678 22.3293C27.0914 20.9326 27.1766 20.7453 27.6364 20.5068C27.909 20.3705 28.1133 20.2173 28.0793 20.1832C27.943 20.0469 23.702 19.6211 23.3784 19.7063C23.0207 19.7914 23.0037 19.8766 23.0037 22.1589C23.0037 24.2709 22.9696 24.5434 22.7141 24.6627C22.2883 24.816 17.6385 24.816 16.6677 24.6456C15.5095 24.4412 15.5776 24.833 16.8721 25.6846C18.0132 26.451 18.95 26.7065 21.2664 26.8598L22.8334 26.962V27.7455C22.8504 29.9427 23.5828 33.0766 24.213 33.6557C24.5706 33.9793 24.5877 33.9623 24.8772 31.9354C24.9794 31.2712 25.2179 29.8745 25.4223 28.8185L25.7629 26.9109H27.6705C30.6001 26.9109 32.1159 27.4389 32.7291 28.6482C33.3082 29.7723 33.1208 31.4415 32.2011 33.7919C31.077 36.6363 30.1742 37.6071 28.3177 37.9989C27.1425 38.2373 26.0354 38.1351 23.685 37.5561C21.3856 37.011 19.7335 37.011 16.5485 37.5561C15.2029 37.7945 13.8404 37.9819 13.5508 37.9819C13.2442 37.9819 12.3756 37.6753 11.6091 37.2835C7.02746 34.9842 3.21225 27.3538 3.67212 21.3754C4.06386 16.4361 6.12476 13.762 10.0592 13.0808C11.524 12.8253 12.4778 12.9956 14.6238 13.8813C18.4391 15.4823 18.7116 15.5504 20.534 15.5675C22.8674 15.5675 24.3833 15.0735 26.887 13.4725C28.5392 12.4165 29.2034 12.127 30.3616 11.9907C32.8824 11.7011 35.5905 13.1148 36.6295 15.2438C37.0382 16.0784 37.464 18.1904 37.4811 19.5019C37.5151 20.9326 37.7366 21.154 37.958 20.0129C38.3667 18.0371 38.0602 15.8911 37.1915 14.256C36.3569 12.7231 34.4323 11.3435 32.5247 10.9177C31.7753 10.7473 29.6973 10.6962 29.0501 10.8495Z" fill="#E90307"/>
<path d="M96.4636 22.7721C96.6169 23.6577 97.0768 24.2198 97.8943 24.5094C98.9333 24.8841 99.7679 24.5264 100.296 23.5045C100.841 22.4314 100.79 22.1419 100.126 22.1419C99.6827 22.1419 99.4954 22.2441 99.274 22.6528C99.0696 22.9935 98.8482 23.1638 98.5756 23.1638C98.1498 23.1638 97.6048 22.7039 97.6048 22.3463C97.6048 22.227 97.3493 22.1419 96.9916 22.1419H96.3615L96.4636 22.7721Z" fill="#200203"/>
<path d="M125.878 22.4826C125.878 23.0447 126.321 23.9474 126.747 24.254C127.837 25.0034 129.268 24.6287 129.813 23.4364C130.29 22.3974 130.239 22.142 129.591 22.142C129.148 22.142 128.961 22.2442 128.74 22.6529C128.535 22.9936 128.314 23.1639 128.041 23.1639C127.616 23.1639 127.071 22.704 127.071 22.3463C127.071 22.2271 126.815 22.142 126.474 22.142C125.98 22.142 125.878 22.2101 125.878 22.4826Z" fill="#200203"/>
<path d="M62.7738 26.1275C62.0926 26.4341 61.5986 26.9961 61.1217 28.018C60.747 28.8356 60.73 29.023 60.73 33.5535C60.73 38.0841 60.747 38.2714 61.1217 39.089C61.8541 40.69 62.6717 41.218 64.3408 41.218C66.4869 41.201 67.628 40.0598 68.0368 37.505L68.139 36.7896H67.2193H66.3165L66.1973 37.488C66.027 38.5099 65.3116 39.1742 64.3578 39.1742C63.5233 39.1742 63.0293 38.7994 62.7057 37.9308C62.5865 37.6413 62.5184 35.904 62.5184 33.5535C62.5184 31.2031 62.5865 29.4658 62.7057 29.1762C63.0293 28.3246 63.5233 27.9329 64.3067 27.9329C65.3968 27.9329 65.8567 28.4098 66.1633 29.8405C66.2655 30.2833 66.3336 30.3174 67.1171 30.3174C67.9346 30.3174 67.9687 30.3004 67.9687 29.8405C67.9687 28.3757 66.9297 26.5873 65.8056 26.1275C65.1073 25.8209 63.4381 25.8379 62.7738 26.1275Z" fill="#200203"/>
<path d="M70.0126 33.5534V41.0476H70.8642H71.7159V33.5534V26.0593H70.8642H70.0126V33.5534Z" fill="#200203"/>
<path d="M74.2196 26.1614C74.1514 26.2296 74.1003 29.602 74.1003 33.6727V41.0476H75.0712H76.025L75.9398 35.7165L75.8376 30.4025L76.5019 32.5315C76.8766 33.7067 77.4046 35.3078 77.6601 36.1083L78.137 37.556L79.0567 37.6071L79.9935 37.6582L81.0836 34.1325L82.1906 30.5898L82.2417 35.8187L82.2758 41.0476H83.1274H83.979V33.5534V26.0593H83.0593H82.1566L81.0325 29.2443C80.4193 31.0156 79.738 33.0425 79.5336 33.7578C79.3122 34.4902 79.1248 35.0523 79.0908 35.0182C79.0567 35.0012 78.3584 32.9914 77.5408 30.5558L76.042 26.1444L75.1904 26.0933C74.7305 26.0593 74.2877 26.0933 74.2196 26.1614Z" fill="#200203"/>
<path d="M86.5338 33.5534V41.0476H89.5996H92.6654V40.0257V39.0037H90.4512H88.237V36.7044V34.405H90.1957H92.1544V33.4683V32.5315H90.1957H88.237V30.3173V28.1031H90.3661H92.4951V27.0812V26.0593H89.5145H86.5338V33.5534Z" fill="#200203"/>
<path d="M94.8286 26.1615C94.7604 26.2296 94.7094 29.619 94.7094 33.6727V41.0647L95.6802 41.0136L96.651 40.9625L97.6559 38.2373C98.218 36.7385 99.0696 34.354 99.5806 32.9574L100.483 30.4025V35.7166L100.5 41.0477H101.352H102.204V33.5535V26.0593H101.284H100.364L98.729 30.4366C97.8433 32.8552 96.9576 35.2567 96.7873 35.7677L96.4637 36.7044L96.4807 31.4245L96.4977 26.1445L95.7313 26.0934C95.3055 26.0593 94.8967 26.0934 94.8286 26.1615Z" fill="#200203"/>
<path d="M104.758 33.5534V41.0476H105.61H106.462V37.7263V34.405H108.25H110.038V37.7263V41.0476H110.89H111.742V33.5534V26.0593H110.89H110.038V29.2954V32.5315H108.25H106.462V29.2954V26.0593H105.61H104.758V33.5534Z" fill="#200203"/>
<path d="M114.416 26.1615C114.347 26.2296 114.296 29.619 114.296 33.6727V41.0647L115.25 41.0136L116.204 40.9625L117.481 37.5561C118.197 35.6825 119.065 33.298 119.423 32.2761L120.07 30.4025L120.087 35.7166V41.0477H120.939H121.791V33.5535V26.0593H120.871C120.155 26.0593 119.934 26.1274 119.832 26.3489C119.44 27.3708 116.357 35.7677 116.221 36.1935C116.102 36.5512 116.051 35.0523 116.068 31.4245L116.085 26.1445L115.318 26.0934C114.893 26.0593 114.484 26.0934 114.416 26.1615Z" fill="#200203"/>
<path d="M124.294 26.1615C124.226 26.2296 124.175 29.619 124.175 33.6727V41.0647L125.129 41.0136L126.083 40.9625L127.616 36.8748C128.467 34.6265 129.319 32.242 129.54 31.5948L129.932 30.4025L129.949 35.7166L129.966 41.0477H130.818H131.669V33.5535V26.0593H130.749H129.83L128.195 30.4366C127.309 32.8552 126.423 35.2567 126.253 35.7677L125.929 36.7044L125.946 31.4245L125.963 26.1445L125.197 26.0934C124.771 26.0593 124.362 26.0934 124.294 26.1615Z" fill="#200203"/>
<path d="M138.738 26.2637C138.703 26.383 138.635 28.1202 138.567 30.113C138.363 36.994 138.124 38.6632 137.273 39.1401C136.83 39.3956 136.779 39.5148 136.779 40.3153C136.779 41.1669 136.796 41.218 137.222 41.218C137.92 41.218 138.789 40.7241 139.163 40.1109C139.725 39.2082 139.998 37.488 140.185 33.5535C140.287 31.5437 140.407 29.4828 140.458 28.9889L140.543 28.1032H141.82H143.081V34.5755V41.0477H144.018H144.954V33.5535V26.0593H141.888C139.572 26.0593 138.789 26.1104 138.738 26.2637Z" fill="#200203"/>
<path d="M147.509 33.5534V41.0476H148.361H149.212V33.5534V26.0593H148.361H147.509V33.5534Z" fill="#200203"/>
<path d="M151.716 26.1614C151.648 26.2296 151.597 29.602 151.597 33.6727V41.0476H152.534H153.47V38.4417C153.47 36.0401 153.505 35.8017 153.862 35.2056L154.271 34.5413L155.77 37.7945L157.286 41.0476H158.291C159.193 41.0476 159.278 41.0135 159.176 40.707C159.125 40.5366 158.239 38.6461 157.201 36.5511C156.179 34.4391 155.344 32.6678 155.344 32.6167C155.344 32.5656 156.076 31.203 156.945 29.5849C157.831 27.9669 158.614 26.5191 158.682 26.3488C158.767 26.0933 158.665 26.0593 157.763 26.0593H156.758L155.191 29.0399C154.339 30.658 153.624 32.1057 153.607 32.2249C153.59 32.3441 153.522 31.0327 153.47 29.2954L153.385 26.1444L152.619 26.0933C152.193 26.0593 151.784 26.0933 151.716 26.1614Z" fill="#200203"/>
<path d="M161.237 33.1616C160.42 37.0791 159.704 40.4514 159.653 40.6558C159.568 41.0305 159.619 41.0476 160.505 41.0476H161.459L161.629 40.1449C161.731 39.668 161.85 38.9696 161.918 38.612L162.021 37.9818H163.69H165.342L165.546 39.0548C165.955 41.269 165.819 41.0476 166.858 41.0476C167.369 41.0476 167.778 41.0135 167.778 40.9624C167.778 40.9113 167.096 37.6071 166.245 33.6045C165.41 29.6189 164.712 26.2806 164.712 26.1955C164.712 26.1273 164.269 26.0592 163.724 26.0592H162.736L161.237 33.1616ZM163.928 30.3513C163.996 30.9475 164.235 32.3271 164.473 33.4512C165.052 36.2956 165.104 36.1082 163.69 36.1082C162.855 36.1082 162.498 36.0401 162.498 35.8868C162.498 35.7846 162.736 34.4731 163.009 32.9743C163.298 31.4925 163.52 30.0618 163.52 29.7893C163.52 28.8866 163.809 29.2783 163.928 30.3513Z" fill="#200203"/>
<path d="M169.31 33.5364V41.0476H170.162H171.014V38.4246V35.8187L172.444 35.7336C173.637 35.6654 173.994 35.5803 174.573 35.2056C175.629 34.5072 176.157 33.332 176.26 31.4074C176.362 29.5509 176.021 28.2223 175.238 27.3367C174.352 26.3147 173.909 26.1785 171.491 26.0933L169.31 26.0252V33.5364ZM173.313 28.3416C174.131 28.6822 174.454 29.4316 174.454 30.9134C174.454 32.9914 173.841 33.7238 172.087 33.7238H171.014V30.9134V28.1031H171.865C172.342 28.1031 172.989 28.2053 173.313 28.3416Z" fill="#200203"/>
<path d="M53.1508 33.5875C52.5887 34.4561 52.1288 35.3589 52.1288 35.5973C52.1288 35.8187 52.6057 36.7214 53.1678 37.5901L54.2238 39.1741H55.0584C55.6886 39.1741 55.8589 39.123 55.7737 38.9527C55.7056 38.8505 55.1946 38.0329 54.6326 37.1813L53.6277 35.5973L54.4963 34.2177C54.9903 33.4512 55.5012 32.6507 55.6545 32.4293L55.91 32.0205H55.0414H54.1557L53.1508 33.5875Z" fill="#200203"/>
<path d="M56.3868 33.5875C55.8077 34.4732 55.3649 35.3589 55.3649 35.5973C55.3649 35.8358 55.8247 36.7385 56.3868 37.5901L57.4087 39.1741H58.2774H59.146L58.8905 38.7653C58.7372 38.5439 58.2263 37.7263 57.7323 36.9769L56.8637 35.5973L57.9708 33.8089L59.0949 32.0205H58.2433H57.3917L56.3868 33.5875Z" fill="#200203"/>
<path d="M177.316 32.1398C177.316 32.1909 177.776 32.9573 178.338 33.843C178.9 34.7116 179.36 35.4951 179.36 35.5632C179.36 35.6484 178.866 36.483 178.269 37.4368L177.162 39.1741L178.048 39.157H178.934L179.922 37.6241C180.535 36.6533 180.892 35.9209 180.892 35.5973C180.892 35.2737 180.535 34.5413 179.922 33.5534L178.934 32.0205H178.133C177.673 32.0205 177.316 32.0716 177.316 32.1398Z" fill="#200203"/>
<path d="M181.505 33.7408C182.119 34.6946 182.579 35.5632 182.527 35.6995C182.476 35.8187 181.982 36.6533 181.42 37.539L180.398 39.1741H181.25H182.102L183.107 37.6071C183.72 36.6703 184.128 35.8528 184.128 35.5803C184.128 35.3078 183.72 34.4732 183.158 33.5705L182.17 32.0376L181.284 32.0205H180.381L181.505 33.7408Z" fill="#200203"/>
</svg>
