<svg width="100" height="33" viewBox="0 0 100 33" fill="none" xmlns="http://www.w3.org/2000/svg">
<path fill-rule="evenodd" clip-rule="evenodd" d="M15.032 9.56547C15.1087 7.4896 15.8121 6.49255 17.7752 5.72271C17.9926 7.03519 17.6217 8.03852 16.6626 8.75152C15.6779 9.41412 15.55 9.56547 15.032 9.56547ZM11.3873 3.54587C11.8541 3.59627 12.5127 4.00011 13.3631 4.79523C13.9961 5.52079 14.2327 6.58724 14.0921 7.9754C12.5549 6.30518 11.1392 6.50676 11.3873 3.54587ZM10.4473 1.99364C10.4473 5.7594 9.87036 6.80237 13.5668 8.51605C13.7441 8.59817 13.89 8.67864 14.0512 8.77333C14.0919 8.79712 14.1261 8.82901 14.1255 8.88271C14.1175 9.61207 14.1113 10.3555 14.1113 11.0989C16.3748 10.064 17.7433 9.15535 18.2163 8.37296C18.9005 7.08576 19.0604 5.6976 18.6959 4.20831C17.9959 4.4679 17.2697 4.65693 16.6081 5.01054C16.499 5.06887 16.3925 5.13348 16.2873 5.20238C15.9846 5.40083 15.7021 5.62754 15.4098 5.84036C15.2875 5.92942 15.1622 6.0175 15.032 6.10144C14.8368 3.87949 12.1805 2.92243 10.4473 1.99364Z" fill="#2F9734"/>
<path fill-rule="evenodd" clip-rule="evenodd" d="M25.5971 17.1766C27.9687 11.8441 21.5354 7.36302 17.324 10.9084C17.0495 11.1394 16.8464 11.3552 16.5254 11.5267C14.6283 12.5407 12.6419 11.9796 10.9417 10.7877C10.7824 10.6759 10.6304 10.566 10.462 10.4672C9.25592 9.75979 8.08843 9.60513 6.95968 9.63206C5.78774 9.66015 4.65743 9.89826 3.56896 10.7059C0.401937 13.0624 -0.682212 16.8607 0.416196 22.0518C0.433857 22.1351 0.454002 22.2142 0.47938 22.2955C2.25431 27.9878 4.83809 31.2353 8.2307 31.9885C9.22111 32.2244 10.5701 32.0559 12.2265 31.4831C13.1486 31.2134 13.5781 31.0559 15.3369 31.6288C18.2739 32.7915 21.2059 32.3182 23.2038 29.7904C25.2872 26.5047 25.8209 22.9383 24.062 20.7981C22.7643 19.6019 21.0726 19.2763 17.9989 19.4786C18.3576 17.2373 18.7674 16.6016 19.1771 16.4499C18.1014 16.4668 16.7538 16.285 15.6781 16.2007C15.6439 17.4815 15.4518 18.4673 15.4177 19.7481C13.932 19.9166 11.9904 20.0858 10.7097 19.715C10.5876 20.2575 11.4558 20.9495 13.0739 21.3304C13.7182 21.4819 14.5851 21.3379 15.3971 21.4916C15.4826 23.9013 16.0406 25.7685 16.7237 26.5099C17.1127 23.6095 17.4048 21.6138 17.5507 21.4004C17.5515 21.3993 18.293 21.4638 18.4239 21.4634C20.5714 21.4594 21.3053 21.6172 22.1573 22.4381C22.9862 23.2371 22.5724 24.8601 22.2268 25.896C21.1752 29.0467 19.9025 30.3031 17.6054 29.7137C15.3173 28.9891 13.5755 28.7869 12.3802 29.0565C9.6133 29.7953 7.77722 29.7381 6.8719 28.8848C6.77006 28.7889 6.67378 28.6849 6.57408 28.5864C3.41905 25.4682 1.94454 21.7365 2.11212 17.3914C2.13906 16.6926 2.2163 16.1624 2.45813 15.5069C3.63385 12.3183 5.49752 10.9029 8.01831 11.1701C8.6079 11.2326 9.0521 11.3918 9.58734 11.6301C10.5002 12.0368 11.3695 12.4826 12.2179 12.9675C12.3142 13.0226 12.4032 13.0601 12.5089 13.0963C13.5797 13.4624 14.6505 13.4709 15.7214 13.1473C16.1648 13.0135 16.4305 12.8456 16.8022 12.5845C18.8777 11.1273 20.5733 10.5414 21.9204 10.7649C22.2082 10.8127 22.5151 10.892 22.7876 10.9938C24.1209 11.4916 25.5283 12.9205 25.6846 14.3346C25.702 14.4919 25.6995 14.647 25.6899 14.8043C25.6871 14.8501 25.6844 14.8959 25.6815 14.9418C25.6363 15.6857 25.5971 16.4311 25.5971 17.1766Z" fill="#EE2922"/>
<path d="M44.372 11.5529C44.2307 12.9059 43.6254 13.5632 42.5216 13.5632C41.3805 13.5632 40.752 12.8158 40.752 11.4585V6.71953C40.752 5.36194 41.358 4.6144 42.4585 4.6144C43.5852 4.6144 44.1798 5.26924 44.2764 6.61559L44.296 6.89055H45.8394L45.8223 6.57891C45.7053 4.43215 44.4476 3.15024 42.4585 3.15024C40.4819 3.15024 39.2048 4.55128 39.2048 6.71953V11.4585C39.2048 13.6268 40.5067 15.0278 42.5216 15.0278C44.4777 15.0278 45.7469 13.7486 45.9166 11.6063L45.9419 11.2874H44.3998L44.372 11.5529Z" fill="#473228"/>
<path d="M48.6655 3.33724H47.0868V14.8406H48.6655V3.33724Z" fill="#473228"/>
<path d="M52.077 8.77719C52.077 8.25669 52.0705 7.76494 52.0569 7.28823C52.0802 7.3459 52.1038 7.40407 52.1274 7.46239C52.2836 7.84822 52.4461 8.24926 52.604 8.65095L54.0371 12.2683H55.4256L56.8589 8.65029C57.0162 8.25025 57.1783 7.84988 57.3342 7.46487C57.3581 7.40572 57.382 7.34656 57.4055 7.28823C57.3921 7.76461 57.3856 8.25603 57.3856 8.77719V14.8406H58.9644V3.33724H57.4219L55.3693 8.23091C55.1714 8.71886 54.9263 9.39386 54.7314 9.94773C54.5366 9.39534 54.2918 8.72084 54.0919 8.22745L52.0407 3.33724H50.4982V14.8406H52.077V8.77719Z" fill="#473228"/>
<path d="M66.7196 13.3604H62.3757V9.74333H66.2775V8.26313H62.3757V4.81711H66.546V3.33724H60.7969V14.8406H66.7196V13.3604Z" fill="#473228"/>
<path d="M71.3161 2.89966C72.5676 2.89966 73.3469 2.11775 73.4005 0.807587L73.4132 0.499915H71.9998L71.9807 0.775696C71.9371 1.40558 71.7041 1.52885 71.3161 1.52885C70.9281 1.52885 70.6949 1.40558 70.6517 0.775696L70.6324 0.499915H69.219L69.2317 0.807587C69.2855 2.11775 70.0648 2.89966 71.3161 2.89966Z" fill="#473228"/>
<path d="M69.7501 10.7389C69.6816 10.8812 69.6111 11.0323 69.5413 11.1859C69.5447 10.9377 69.5465 10.7098 69.5465 10.5386V3.33724H67.9677V14.8406H69.5365L73.0461 7.03592L73.0734 6.97114L73.0699 7.35846V14.8406H74.6487V3.33724H73.0476L69.7501 10.7389Z" fill="#473228"/>
<path d="M81.394 8.24744H78.0602V3.33724H76.4813V14.8406H78.0602V9.74333H81.394V14.8406H82.973V3.33724H81.394V8.24744Z" fill="#473228"/>
<path d="M86.5879 10.7389C86.5194 10.8812 86.4489 11.0323 86.3791 11.1859C86.3824 10.9377 86.3843 10.7098 86.3843 10.5386V3.33724H84.8054V14.8406H86.3742L89.8837 7.03592L89.9112 6.97114L89.9077 7.35846V14.8406H91.4865V3.33724H89.8854L86.5879 10.7389Z" fill="#473228"/>
<path d="M98.3991 3.33724L95.1014 10.7389C95.033 10.8812 94.9625 11.0323 94.8926 11.1859C94.896 10.9373 94.8978 10.7098 94.8978 10.5386V3.33724H93.319V14.8406H94.8878L98.3973 7.03592L98.4247 6.97114L98.4212 7.35846V14.8406H100V3.33724H98.3991Z" fill="#473228"/>
<path d="M96.6673 2.89966C97.9188 2.89966 98.6981 2.11775 98.7517 0.807587L98.7644 0.499915H97.351L97.3319 0.775696C97.2885 1.40558 97.0554 1.52885 96.6673 1.52885C96.2793 1.52885 96.0461 1.40558 96.0027 0.775696L95.9836 0.499915H94.5702L94.5829 0.807587C94.6367 2.11775 95.4158 2.89966 96.6673 2.89966Z" fill="#473228"/>
<path d="M39.9473 20.6514C39.775 25.4839 39.5824 28.2844 39.4594 29.2969C39.3711 30.0942 39.0781 30.4987 38.5883 30.4987H38.2886V32.0098H38.5883C39.9429 32.0098 40.8003 31.1205 41.0019 29.5102C41.1909 28.173 41.3304 25.1483 41.4665 21.8617H43.7227V31.8695H45.3015V20.3662H39.9577L39.9473 20.6514Z" fill="#473228"/>
<path d="M47.1339 31.8696H48.7128V20.3663H47.1339V31.8696Z" fill="#473228"/>
<path d="M59.6787 27.8487L60.7232 23.6972C60.7591 23.559 60.7944 23.4165 60.8279 23.2744C60.8614 23.4157 60.8964 23.5577 60.932 23.6952L61.9771 27.8487H59.6787ZM60.0597 20.3663L57.2183 31.0335L53.6088 25.428L57.3592 20.3663H55.3979L52.4789 24.4216L52.1242 24.925V20.3663H50.5455V31.8696H52.1242V27.4155L52.5966 26.7815L55.8779 31.8696H56.9956H57.7568H58.6608L59.3085 29.3131H62.3473L62.9951 31.8696H64.6602L61.5961 20.3663H60.0597Z" fill="#473228"/>
<path d="M68.315 26.2273H66.9403V21.8774H68.315C69.6154 21.8774 70.1953 22.5362 70.1953 24.0132C70.1953 25.5652 69.633 26.2273 68.315 26.2273ZM68.315 20.3663H65.3615V31.8696H66.9403V27.7387H68.315C70.5458 27.7387 71.7741 26.4158 71.7741 24.0132C71.7741 21.6958 70.5133 20.3663 68.315 20.3663Z" fill="#473228"/>
<path d="M31.116 1.72436V32.5H32.798V1.72436H31.116Z" fill="#473228"/>
</svg>
