<svg width="141" height="46" viewBox="0 0 141 46" fill="none" xmlns="http://www.w3.org/2000/svg">
<path fill-rule="evenodd" clip-rule="evenodd" d="M21.1942 12.7746C21.3024 9.8476 22.2941 8.44178 25.0622 7.35631C25.3686 9.2069 24.8457 10.6216 23.4933 11.6269C22.1049 12.5612 21.9246 12.7746 21.1942 12.7746ZM16.0553 4.287C16.7134 4.35806 17.642 4.92747 18.8411 6.04858C19.7337 7.07161 20.0672 8.57528 19.869 10.5326C17.7015 8.17758 15.7054 8.46182 16.0553 4.287ZM14.7299 2.09836C14.7299 7.40804 13.9164 8.87863 19.1283 11.2949C19.3783 11.4107 19.584 11.5241 19.8113 11.6576C19.8687 11.6912 19.9169 11.7362 19.9161 11.8119C19.9047 12.8403 19.896 13.8885 19.896 14.9366C23.0875 13.4775 25.0171 12.1963 25.684 11.0931C26.6487 9.27819 26.8742 7.3209 26.3602 5.22103C25.3733 5.58704 24.3494 5.85358 23.4165 6.35216C23.2627 6.4344 23.1124 6.5255 22.9641 6.62265C22.5373 6.90246 22.139 7.22212 21.7269 7.5222C21.5545 7.64778 21.3778 7.77196 21.1942 7.89031C20.919 4.75739 17.1737 3.40795 14.7299 2.09836Z" fill="#2F9734"/>
<path fill-rule="evenodd" clip-rule="evenodd" d="M36.0917 23.5103C39.4355 15.9916 30.3647 9.6733 24.4266 14.6722C24.0396 14.9979 23.7532 15.3022 23.3006 15.544C20.6257 16.9738 17.8249 16.1826 15.4277 14.5021C15.2031 14.3444 14.9887 14.1894 14.7513 14.0501C13.0507 13.0527 11.4046 12.8346 9.81306 12.8726C8.16064 12.9122 6.56692 13.248 5.0322 14.3868C0.566726 17.7093 -0.96191 23.0649 0.586832 30.3843C0.611733 30.5017 0.640138 30.6133 0.67592 30.728C3.17855 38.754 6.82164 43.333 11.6052 44.395C13.0016 44.7276 14.9037 44.49 17.2392 43.6823C18.5393 43.3021 19.1449 43.08 21.6248 43.8878C25.766 45.5272 29.9 44.8598 32.7171 41.2956C35.6547 36.6628 36.4071 31.6343 33.9271 28.6167C32.0974 26.9299 29.7121 26.4709 25.3783 26.7561C25.884 23.5959 26.4617 22.6997 27.0395 22.4857C25.5228 22.5095 23.6227 22.2532 22.1059 22.1344C22.0577 23.9403 21.7869 25.3302 21.7387 27.1361C19.644 27.3737 16.9063 27.6123 15.1005 27.0895C14.9283 27.8544 16.1525 28.8301 18.4341 29.3671C19.3424 29.5807 20.5649 29.3778 21.7098 29.5945C21.8302 32.9921 22.6171 35.6248 23.5802 36.6702C24.1286 32.5807 24.5406 29.7667 24.7463 29.4659C24.7474 29.4642 25.7929 29.5552 25.9775 29.5546C29.0055 29.5491 30.0403 29.7716 31.2415 30.929C32.4102 32.0556 31.8268 34.344 31.3395 35.8047C29.8568 40.247 28.0622 42.0186 24.8235 41.1875C21.5972 40.1659 19.1413 39.8807 17.4559 40.2609C13.5546 41.3026 10.9658 41.222 9.6893 40.0188C9.54571 39.8835 9.40995 39.737 9.26938 39.5981C4.82082 35.2014 2.74177 29.9398 2.97806 23.8132C3.01604 22.828 3.12496 22.0803 3.46593 21.1561C5.12368 16.6602 7.75144 14.6645 11.3057 15.0412C12.137 15.1293 12.7634 15.3539 13.518 15.6899C14.8051 16.2632 16.0308 16.8918 17.2271 17.5756C17.3629 17.6532 17.4883 17.7061 17.6375 17.7571C19.1473 18.2734 20.6571 18.2853 22.1669 17.8291C22.7921 17.6404 23.1668 17.4037 23.6909 17.0356C26.6173 14.9809 29.0081 14.1547 30.9075 14.47C31.3133 14.5373 31.7461 14.6491 32.1302 14.7926C34.0102 15.4946 35.9946 17.5092 36.2149 19.5031C36.2395 19.7249 36.2359 19.9437 36.2225 20.1655C36.2185 20.23 36.2147 20.2945 36.2107 20.3593C36.1469 21.4082 36.0917 22.4592 36.0917 23.5103Z" fill="#EE2922"/>
<path d="M62.5636 15.5774C62.3643 17.4851 61.5109 18.4119 59.9545 18.4119C58.3455 18.4119 57.4594 17.3581 57.4594 15.4444V8.76244C57.4594 6.84826 58.3139 5.79424 59.8655 5.79424C61.4542 5.79424 62.2926 6.71755 62.4288 8.6159L62.4564 9.00358H64.6325L64.6084 8.56417C64.4434 5.53726 62.6701 3.72978 59.8655 3.72978C57.0786 3.72978 55.2779 5.70524 55.2779 8.76244V15.4444C55.2779 18.5016 57.1135 20.4771 59.9545 20.4771C62.7126 20.4771 64.5022 18.6733 64.7414 15.6527L64.777 15.203H62.6028L62.5636 15.5774Z" fill="#473228"/>
<path d="M68.6177 3.99967H66.3918V20.2192H68.6177V3.99967Z" fill="#473228"/>
<path d="M73.4286 11.6699C73.4286 10.936 73.4194 10.2427 73.4002 9.57052C73.4331 9.65183 73.4664 9.73384 73.4996 9.81609C73.7199 10.3601 73.9489 10.9256 74.1716 11.4919L76.1923 16.5924H78.1501L80.171 11.491C80.3927 10.9269 80.6213 10.3624 80.8411 9.81958C80.8749 9.73617 80.9086 9.65276 80.9417 9.57052C80.9228 10.2422 80.9136 10.9351 80.9136 11.6699V20.2192H83.1397V3.99967H80.9648L78.0707 10.8997C77.7917 11.5877 77.446 12.5394 77.1712 13.3204C76.8966 12.5415 76.5514 11.5905 76.2695 10.8948L73.3773 3.99967H71.2024V20.2192H73.4286V11.6699Z" fill="#473228"/>
<path d="M94.072 18.1322H87.9472V13.0322H93.4487V10.9451H87.9472V6.08626H93.8272V3.99967H85.721V20.2192H94.072V18.1322Z" fill="#473228"/>
<path d="M100.553 3.38391C102.318 3.38391 103.417 2.28144 103.492 0.434115L103.51 0.000300715H101.517L101.49 0.389148C101.429 1.27728 101.1 1.45109 100.553 1.45109C100.006 1.45109 99.6775 1.27728 99.6166 0.389148L99.5894 0.000300715H97.5965L97.6145 0.434115C97.6903 2.28144 98.789 3.38391 100.553 3.38391Z" fill="#473228"/>
<path d="M98.3472 14.4359C98.2507 14.6365 98.1513 14.8497 98.0528 15.0661C98.0575 14.7162 98.0601 14.3949 98.0601 14.1535V3.99967H95.834V20.2192H98.046L102.995 9.21476L103.033 9.12343L103.028 9.66954V20.2192H105.254V3.99967H102.997L98.3472 14.4359Z" fill="#473228"/>
<path d="M114.764 10.923H110.063V3.99967H107.837V20.2192H110.063V13.0322H114.764V20.2192H116.99V3.99967H114.764V10.923Z" fill="#473228"/>
<path d="M122.087 14.4359C121.991 14.6365 121.891 14.8497 121.793 15.0661C121.798 14.7162 121.8 14.3949 121.8 14.1535V3.99967H119.574V20.2192H121.786L126.735 9.21476L126.773 9.12343L126.768 9.66954V20.2192H128.994V3.99967H126.737L122.087 14.4359Z" fill="#473228"/>
<path d="M138.743 3.99967L134.093 14.4359C133.996 14.6365 133.897 14.8497 133.799 15.0661C133.803 14.7157 133.806 14.3949 133.806 14.1535V3.99967H131.58V20.2192H133.792L138.74 9.21476L138.779 9.12343L138.774 9.66954V20.2192H141V3.99967H138.743Z" fill="#473228"/>
<path d="M136.3 3.38391C138.064 3.38391 139.163 2.28144 139.238 0.434115L139.256 0.000300715H137.264L137.237 0.389148C137.175 1.27728 136.847 1.45109 136.3 1.45109C135.753 1.45109 135.424 1.27728 135.362 0.389148L135.336 0.000300715H133.343L133.361 0.434115C133.436 2.28144 134.535 3.38391 136.3 3.38391Z" fill="#473228"/>
<path d="M56.3249 28.4103C56.082 35.2242 55.8105 39.1728 55.6369 40.6004C55.5125 41.7246 55.0993 42.2949 54.4088 42.2949H53.9861V44.4255H54.4088C56.3188 44.4255 57.5276 43.1717 57.8119 40.9012C58.0784 39.0157 58.2751 34.7509 58.467 30.1169H61.6482V44.2278H63.8744V28.0083H56.3396L56.3249 28.4103Z" fill="#473228"/>
<path d="M66.4578 44.2253H68.6839V28.0058H66.4578V44.2253Z" fill="#473228"/>
<path d="M84.1472 38.5559L85.62 32.7022C85.6705 32.5075 85.7203 32.3065 85.7676 32.1062C85.8148 32.3055 85.8641 32.5056 85.9144 32.6994L87.3879 38.5559H84.1472ZM84.6844 28.0058L80.678 43.0464L75.5887 35.1427L80.8768 28.0058H78.1114L73.9955 33.7236L73.4955 34.4335V28.0058H71.2696V44.2253H73.4955V37.9451L74.1615 37.0511L78.7881 44.2253H80.364H81.4373H82.712L83.6252 40.6207H87.9099L88.8234 44.2253H91.1711L86.8508 28.0058H84.6844Z" fill="#473228"/>
<path d="M96.322 36.2697H94.3836V30.1364H96.322C98.1555 30.1364 98.9731 31.0653 98.9731 33.1479C98.9731 35.3361 98.1803 36.2697 96.322 36.2697ZM96.322 28.0058H92.1574V44.2253H94.3836V38.4008H96.322C99.4672 38.4008 101.199 36.5355 101.199 33.1479C101.199 29.8803 99.4214 28.0058 96.322 28.0058Z" fill="#473228"/>
<path d="M43.8732 1.72268V45.116H46.2448V1.72268H43.8732Z" fill="#473228"/>
</svg>
