<svg width="24" height="28" viewBox="0 0 24 28" fill="none" xmlns="http://www.w3.org/2000/svg">
<path d="M20.5 13.0834H13.4167V6.00004H20.5M18.375 21.5834C17.8114 21.5834 17.2709 21.3595 16.8724 20.961C16.4739 20.5625 16.25 20.022 16.25 19.4584C16.25 18.8948 16.4739 18.3543 16.8724 17.9558C17.2709 17.5573 17.8114 17.3334 18.375 17.3334C18.9386 17.3334 19.4791 17.5573 19.8776 17.9558C20.2761 18.3543 20.5 18.8948 20.5 19.4584C20.5 20.022 20.2761 20.5625 19.8776 20.961C19.4791 21.3595 18.9386 21.5834 18.375 21.5834ZM10.5833 13.0834H3.49999V6.00004H10.5833M5.62499 21.5834C5.0614 21.5834 4.5209 21.3595 4.12239 20.961C3.72387 20.5625 3.49999 20.022 3.49999 19.4584C3.49999 18.8948 3.72387 18.3543 4.12239 17.9558C4.5209 17.5573 5.0614 17.3334 5.62499 17.3334C6.18857 17.3334 6.72908 17.5573 7.12759 17.9558C7.5261 18.3543 7.74999 18.8948 7.74999 19.4584C7.74999 20.022 7.5261 20.5625 7.12759 20.961C6.72908 21.3595 6.18857 21.5834 5.62499 21.5834ZM12 0.333374C5.73832 0.333374 0.666656 1.04171 0.666656 6.00004V19.4584C0.666656 20.7734 1.18905 22.0346 2.11892 22.9644C3.04879 23.8943 4.30996 24.4167 5.62499 24.4167L3.49999 26.5417V27.25H20.5V26.5417L18.375 24.4167C19.69 24.4167 20.9512 23.8943 21.8811 22.9644C22.8109 22.0346 23.3333 20.7734 23.3333 19.4584V6.00004C23.3333 1.04171 18.2617 0.333374 12 0.333374Z" fill="#EE2922"/>
</svg>
