<svg width="34" height="35" viewBox="0 0 34 35" fill="none" xmlns="http://www.w3.org/2000/svg">
<path d="M25.5 16.0834H18.4167V9.00004H25.5M23.375 24.5834C22.8114 24.5834 22.2709 24.3595 21.8724 23.961C21.4739 23.5625 21.25 23.022 21.25 22.4584C21.25 21.8948 21.4739 21.3543 21.8724 20.9558C22.2709 20.5573 22.8114 20.3334 23.375 20.3334C23.9386 20.3334 24.4791 20.5573 24.8776 20.9558C25.2761 21.3543 25.5 21.8948 25.5 22.4584C25.5 23.022 25.2761 23.5625 24.8776 23.961C24.4791 24.3595 23.9386 24.5834 23.375 24.5834ZM15.5833 16.0834H8.49999V9.00004H15.5833M10.625 24.5834C10.0614 24.5834 9.5209 24.3595 9.12239 23.961C8.72387 23.5625 8.49999 23.022 8.49999 22.4584C8.49999 21.8948 8.72387 21.3543 9.12239 20.9558C9.5209 20.5573 10.0614 20.3334 10.625 20.3334C11.1886 20.3334 11.7291 20.5573 12.1276 20.9558C12.5261 21.3543 12.75 21.8948 12.75 22.4584C12.75 23.022 12.5261 23.5625 12.1276 23.961C11.7291 24.3595 11.1886 24.5834 10.625 24.5834ZM17 3.33337C10.7383 3.33337 5.66666 4.04171 5.66666 9.00004V22.4584C5.66666 23.7734 6.18905 25.0346 7.11892 25.9644C8.04879 26.8943 9.30996 27.4167 10.625 27.4167L8.49999 29.5417V30.25H25.5V29.5417L23.375 27.4167C24.69 27.4167 25.9512 26.8943 26.8811 25.9644C27.8109 25.0346 28.3333 23.7734 28.3333 22.4584V9.00004C28.3333 4.04171 23.2617 3.33337 17 3.33337Z" fill="#EE2922"/>
</svg>
